<svg width="379" height="251" viewBox="0 0 379 251" fill="none" xmlns="http://www.w3.org/2000/svg">
<g filter="url(#filter0_dddddd_180_33)">
<path d="M317.733 203.527C311.234 208.892 304.946 212.446 299.979 215.252C241.59 248.254 168.464 242.682 152.895 241.218C129.908 239.058 85.4741 234.879 51.4249 210.568C-0.0881628 173.787 1.83951 112.108 35.4045 69.9423C41.5441 62.2316 73.7961 19.5062 146.307 9.63034C190.187 3.65263 242.489 9.38597 281.79 29.2947C364.288 71.0865 366.983 162.878 317.733 203.527Z" fill="#DED0EE"/>
<path d="M299.716 214.816L299.956 215.214L299.716 214.816C241.469 247.738 168.481 242.185 152.92 240.722C129.915 238.56 85.6219 234.384 51.7052 210.167C26.0785 191.87 13.7618 167.399 12.0108 142.262C10.2587 117.112 19.0839 91.2656 35.8032 70.2622C35.9477 70.0807 36.1067 69.8797 36.2805 69.6601C43.4616 60.5854 75.7825 19.7418 146.396 10.1243L146.307 9.63034L146.396 10.1243C190.202 4.15681 242.394 9.88679 281.578 29.7368C363.75 71.3633 366.378 162.715 317.402 203.138C310.938 208.473 304.684 212.01 299.716 214.816Z" stroke="black"/>
</g>
<path d="M89.5251 167.036C88.7625 167.036 88.1465 166.83 87.6771 166.42C87.2371 166.009 87.0171 165.437 87.0171 164.704V139.712H77.9971C77.2345 139.712 76.6478 139.55 76.2371 139.228C75.8265 138.876 75.6211 138.392 75.6211 137.776C75.6211 137.13 75.8265 136.646 76.2371 136.324C76.6478 135.972 77.2345 135.796 77.9971 135.796H101.053C101.816 135.796 102.402 135.972 102.813 136.324C103.253 136.646 103.473 137.13 103.473 137.776C103.473 138.392 103.253 138.876 102.813 139.228C102.402 139.55 101.816 139.712 101.053 139.712H92.0331V164.704C92.0331 165.408 91.7985 165.98 91.3291 166.42C90.8891 166.83 90.2878 167.036 89.5251 167.036ZM112.311 167.036C109.788 167.036 107.588 166.596 105.711 165.716C103.863 164.806 102.44 163.516 101.443 161.844C100.475 160.172 99.9906 158.192 99.9906 155.904C99.9906 152.354 101.047 149.582 103.159 147.588C105.271 145.593 108.204 144.596 111.959 144.596C114.276 144.596 116.329 144.962 118.119 145.696C119.908 146.429 121.301 147.456 122.299 148.776C123.296 150.066 123.795 151.548 123.795 153.22C123.795 154.569 123.384 155.61 122.563 156.344C121.741 157.077 120.583 157.444 119.087 157.444H104.831C104.831 159.262 105.476 160.67 106.767 161.668C108.057 162.665 109.905 163.164 112.311 163.164C113.689 163.164 114.907 163.017 115.963 162.724C117.019 162.43 118.001 161.961 118.911 161.316C119.761 160.758 120.407 160.48 120.847 160.48C121.228 160.48 121.624 160.685 122.035 161.096C122.504 161.536 122.739 162.02 122.739 162.548C122.739 163.105 122.489 163.574 121.991 163.956C119.527 166.009 116.3 167.036 112.311 167.036ZM117.591 153.88C118.089 153.88 118.456 153.777 118.691 153.572C118.925 153.366 119.043 153.014 119.043 152.516C119.043 151.313 118.397 150.345 117.107 149.612C115.816 148.849 114.1 148.468 111.959 148.468C109.788 148.468 108.072 148.966 106.811 149.964C105.549 150.932 104.919 152.237 104.919 153.88H117.591ZM135.313 167.036C132.526 167.036 130.297 166.376 128.625 165.056C126.953 163.736 126.117 161.976 126.117 159.776C126.117 157.605 126.997 155.874 128.757 154.584C130.546 153.293 132.951 152.648 135.973 152.648C138.906 152.648 141.194 153.322 142.837 154.672V153C142.837 151.533 142.367 150.418 141.429 149.656C140.519 148.864 139.17 148.468 137.381 148.468C134.858 148.468 132.687 149.025 130.869 150.14C130.253 150.492 129.695 150.668 129.197 150.668C128.669 150.668 128.185 150.433 127.745 149.964C127.451 149.641 127.305 149.26 127.305 148.82C127.305 148.116 127.613 147.558 128.229 147.148C129.285 146.356 130.619 145.74 132.233 145.3C133.846 144.83 135.533 144.596 137.293 144.596C140.607 144.596 143.203 145.344 145.081 146.84C146.958 148.336 147.897 150.404 147.897 153.044V164.836C147.897 165.51 147.677 166.053 147.237 166.464C146.797 166.845 146.195 167.036 145.433 167.036C144.67 167.036 144.069 166.845 143.629 166.464C143.218 166.082 143.013 165.554 143.013 164.88V164.044C141.282 166.038 138.715 167.036 135.313 167.036ZM136.369 163.428C138.363 163.428 139.947 163.105 141.121 162.46C142.294 161.785 142.881 160.876 142.881 159.732C142.881 158.617 142.309 157.737 141.165 157.092C140.021 156.446 138.451 156.124 136.457 156.124C134.726 156.124 133.377 156.446 132.409 157.092C131.47 157.737 131.001 158.632 131.001 159.776C131.001 160.949 131.455 161.858 132.365 162.504C133.303 163.12 134.638 163.428 136.369 163.428ZM163.957 167.036C160.173 167.036 157.196 166.038 155.025 164.044C152.854 162.049 151.769 159.292 151.769 155.772C151.769 152.31 152.854 149.582 155.025 147.588C157.196 145.593 160.173 144.596 163.957 144.596C166.069 144.596 167.961 144.933 169.633 145.608C171.305 146.282 172.625 147.236 173.593 148.468C173.916 148.878 174.077 149.289 174.077 149.7C174.077 150.374 173.725 150.961 173.021 151.46C172.698 151.694 172.332 151.812 171.921 151.812C171.1 151.812 170.396 151.489 169.809 150.844C169.134 150.11 168.298 149.553 167.301 149.172C166.304 148.761 165.189 148.556 163.957 148.556C161.669 148.556 159.894 149.186 158.633 150.448C157.372 151.709 156.741 153.484 156.741 155.772C156.741 158.089 157.372 159.893 158.633 161.184C159.894 162.445 161.669 163.076 163.957 163.076C166.509 163.076 168.636 162.254 170.337 160.612C171.041 159.908 171.73 159.556 172.405 159.556C172.904 159.556 173.329 159.717 173.681 160.04C174.297 160.509 174.605 161.081 174.605 161.756C174.605 162.254 174.414 162.68 174.033 163.032C172.654 164.41 171.144 165.422 169.501 166.068C167.888 166.713 166.04 167.036 163.957 167.036ZM181.147 167.036C180.384 167.036 179.783 166.83 179.343 166.42C178.903 166.009 178.683 165.437 178.683 164.704V135.532C178.683 134.798 178.903 134.226 179.343 133.816C179.783 133.405 180.384 133.2 181.147 133.2C181.91 133.2 182.511 133.405 182.951 133.816C183.391 134.226 183.611 134.798 183.611 135.532V148.644C185.752 145.945 188.612 144.596 192.191 144.596C194.978 144.596 197.163 145.446 198.747 147.148C200.36 148.849 201.167 151.196 201.167 154.188V164.704C201.167 165.437 200.932 166.009 200.463 166.42C200.023 166.83 199.422 167.036 198.659 167.036C197.896 167.036 197.295 166.83 196.855 166.42C196.444 166.009 196.239 165.437 196.239 164.704V154.188C196.239 152.369 195.799 150.976 194.919 150.008C194.039 149.04 192.792 148.556 191.179 148.556C188.832 148.556 186.984 149.26 185.635 150.668C184.286 152.046 183.611 153.924 183.611 156.3V164.704C183.611 165.408 183.376 165.98 182.907 166.42C182.467 166.83 181.88 167.036 181.147 167.036ZM217.326 167.036C214.804 167.036 212.604 166.596 210.726 165.716C208.878 164.806 207.456 163.516 206.458 161.844C205.49 160.172 205.006 158.192 205.006 155.904C205.006 152.354 206.062 149.582 208.174 147.588C210.286 145.593 213.22 144.596 216.974 144.596C219.292 144.596 221.345 144.962 223.134 145.696C224.924 146.429 226.317 147.456 227.314 148.776C228.312 150.066 228.81 151.548 228.81 153.22C228.81 154.569 228.4 155.61 227.578 156.344C226.757 157.077 225.598 157.444 224.102 157.444H209.846C209.846 159.262 210.492 160.67 211.782 161.668C213.073 162.665 214.921 163.164 217.326 163.164C218.705 163.164 219.922 163.017 220.978 162.724C222.034 162.43 223.017 161.961 223.926 161.316C224.777 160.758 225.422 160.48 225.862 160.48C226.244 160.48 226.64 160.685 227.05 161.096C227.52 161.536 227.754 162.02 227.754 162.548C227.754 163.105 227.505 163.574 227.006 163.956C224.542 166.009 221.316 167.036 217.326 167.036ZM222.606 153.88C223.105 153.88 223.472 153.777 223.706 153.572C223.941 153.366 224.058 153.014 224.058 152.516C224.058 151.313 223.413 150.345 222.122 149.612C220.832 148.849 219.116 148.468 216.974 148.468C214.804 148.468 213.088 148.966 211.826 149.964C210.565 150.932 209.934 152.237 209.934 153.88H222.606ZM235.373 167.036C234.611 167.036 234.009 166.83 233.569 166.42C233.129 166.009 232.909 165.437 232.909 164.704V146.928C232.909 146.194 233.115 145.622 233.525 145.212C233.965 144.801 234.552 144.596 235.285 144.596C236.048 144.596 236.635 144.801 237.045 145.212C237.485 145.622 237.705 146.194 237.705 146.928V148.776C239.612 146.282 242.12 145.036 245.229 145.036H246.241C247.033 145.036 247.649 145.212 248.089 145.564C248.559 145.916 248.793 146.4 248.793 147.016C248.793 147.661 248.559 148.16 248.089 148.512C247.649 148.834 247.033 148.996 246.241 148.996H244.833C242.692 148.996 240.991 149.656 239.729 150.976C238.468 152.266 237.837 154.041 237.837 156.3V164.704C237.837 165.408 237.603 165.98 237.133 166.42C236.693 166.83 236.107 167.036 235.373 167.036ZM261.251 167.036C258.846 167.036 256.778 166.669 255.047 165.936C253.346 165.173 251.967 164.146 250.911 162.856C250.559 162.357 250.383 161.888 250.383 161.448C250.383 160.744 250.721 160.186 251.395 159.776C251.806 159.541 252.187 159.424 252.539 159.424C253.097 159.424 253.654 159.702 254.211 160.26C255.209 161.257 256.221 161.99 257.247 162.46C258.303 162.9 259.565 163.12 261.031 163.12C262.381 163.12 263.481 162.929 264.331 162.548C265.182 162.166 265.607 161.653 265.607 161.008C265.607 160.509 265.446 160.098 265.123 159.776C264.83 159.424 264.302 159.086 263.539 158.764C262.777 158.441 261.589 158.016 259.975 157.488C256.866 156.49 254.666 155.478 253.375 154.452C252.114 153.396 251.483 152.061 251.483 150.448C251.483 148.629 252.261 147.206 253.815 146.18C255.37 145.124 257.482 144.596 260.151 144.596C262.175 144.596 264.023 144.918 265.695 145.564C267.367 146.209 268.599 147.06 269.391 148.116C269.714 148.526 269.875 148.966 269.875 149.436C269.875 150.022 269.567 150.521 268.951 150.932C268.57 151.196 268.13 151.328 267.631 151.328C266.957 151.328 266.282 151.02 265.607 150.404C264.287 149.142 262.454 148.512 260.107 148.512C257.673 148.512 256.455 149.157 256.455 150.448C256.455 150.946 256.617 151.357 256.939 151.68C257.262 152.002 257.819 152.325 258.611 152.648C259.433 152.941 260.753 153.381 262.571 153.968C264.566 154.584 266.135 155.214 267.279 155.86C268.423 156.505 269.245 157.238 269.743 158.06C270.242 158.852 270.491 159.834 270.491 161.008C270.491 162.826 269.67 164.293 268.027 165.408C266.385 166.493 264.126 167.036 261.251 167.036Z" fill="white"/>
<path d="M77.532 116.15C77.112 116.15 76.772 116.03 76.512 115.79C76.272 115.53 76.152 115.18 76.152 114.74V101.6C76.152 99.3999 76.762 97.6799 77.982 96.4399C79.222 95.1799 80.932 94.5499 83.112 94.5499C84.312 94.5499 85.422 94.8499 86.442 95.4499C87.462 96.0499 88.262 96.8699 88.842 97.9099C89.422 96.8499 90.212 96.0299 91.212 95.4499C92.212 94.8499 93.322 94.5499 94.542 94.5499C96.722 94.5499 98.432 95.1799 99.672 96.4399C100.912 97.6799 101.532 99.3999 101.532 101.6V114.74C101.532 115.18 101.402 115.53 101.142 115.79C100.882 116.03 100.532 116.15 100.092 116.15C99.652 116.15 99.312 116.03 99.072 115.79C98.832 115.53 98.712 115.18 98.712 114.74V101.6C98.712 100.02 98.382 98.8399 97.722 98.0599C97.062 97.2799 95.972 96.8899 94.452 96.8899C93.132 96.8899 92.092 97.3099 91.332 98.1499C90.592 98.9699 90.222 100.12 90.222 101.6V114.74C90.222 115.18 90.092 115.53 89.832 115.79C89.592 116.03 89.262 116.15 88.842 116.15C88.402 116.15 88.062 116.03 87.822 115.79C87.582 115.53 87.462 115.18 87.462 114.74V101.6C87.462 100.16 87.072 99.0199 86.292 98.1799C85.532 97.3199 84.502 96.8899 83.202 96.8899C81.702 96.8899 80.622 97.2899 79.962 98.0899C79.302 98.8699 78.972 100.04 78.972 101.6V114.74C78.972 115.18 78.842 115.53 78.582 115.79C78.322 116.03 77.972 116.15 77.532 116.15ZM111.143 116.15C109.203 116.15 107.663 115.71 106.523 114.83C105.403 113.95 104.843 112.76 104.843 111.26C104.843 109.76 105.433 108.57 106.613 107.69C107.813 106.81 109.443 106.37 111.503 106.37C112.583 106.37 113.543 106.51 114.383 106.79C115.243 107.07 115.933 107.45 116.453 107.93V106.43C116.453 105.35 116.103 104.53 115.403 103.97C114.723 103.39 113.713 103.1 112.373 103.1C110.593 103.1 109.053 103.51 107.753 104.33C107.373 104.55 107.043 104.66 106.763 104.66C106.503 104.66 106.243 104.55 105.983 104.33C105.763 104.11 105.653 103.85 105.653 103.55C105.653 103.21 105.823 102.9 106.163 102.62C106.883 102.08 107.793 101.65 108.893 101.33C109.993 101.01 111.143 100.85 112.343 100.85C114.523 100.85 116.223 101.35 117.443 102.35C118.663 103.33 119.273 104.71 119.273 106.49V114.8C119.273 115.24 119.153 115.58 118.913 115.82C118.693 116.04 118.363 116.15 117.923 116.15C117.483 116.15 117.143 116.04 116.903 115.82C116.663 115.58 116.543 115.26 116.543 114.86V114.02C115.343 115.44 113.543 116.15 111.143 116.15ZM111.623 114.02C113.083 114.02 114.253 113.76 115.133 113.24C116.033 112.7 116.483 112 116.483 111.14C116.483 110.3 116.053 109.65 115.193 109.19C114.353 108.71 113.183 108.47 111.683 108.47C110.383 108.47 109.383 108.71 108.683 109.19C107.983 109.67 107.633 110.36 107.633 111.26C107.633 112.14 107.973 112.82 108.653 113.3C109.353 113.78 110.343 114.02 111.623 114.02ZM133.177 112.58C133.437 112.8 133.567 113.05 133.567 113.33C133.567 113.57 133.457 113.86 133.237 114.2C132.817 114.8 132.227 115.28 131.467 115.64C130.707 115.98 129.897 116.15 129.037 116.15C127.617 116.15 126.497 115.75 125.677 114.95C124.877 114.13 124.477 113.01 124.477 111.59V103.4H122.977C122.517 103.4 122.157 103.3 121.897 103.1C121.657 102.9 121.537 102.62 121.537 102.26C121.537 101.92 121.657 101.65 121.897 101.45C122.157 101.25 122.517 101.15 122.977 101.15H124.477V96.2299C124.477 95.7899 124.597 95.4499 124.837 95.2099C125.097 94.9499 125.447 94.8199 125.887 94.8199C126.327 94.8199 126.657 94.9399 126.877 95.1799C127.117 95.4199 127.237 95.7699 127.237 96.2299V101.15H130.927C131.387 101.15 131.737 101.25 131.977 101.45C132.237 101.63 132.367 101.9 132.367 102.26C132.367 102.62 132.237 102.9 131.977 103.1C131.737 103.3 131.387 103.4 130.927 103.4H127.237V111.83C127.237 112.47 127.407 112.97 127.747 113.33C128.087 113.67 128.567 113.84 129.187 113.84C129.627 113.84 130.017 113.77 130.357 113.63C130.697 113.47 131.037 113.21 131.377 112.85C131.757 112.47 132.107 112.28 132.427 112.28C132.707 112.28 132.957 112.38 133.177 112.58ZM144.031 116.15C141.431 116.15 139.401 115.48 137.941 114.14C136.501 112.78 135.781 110.9 135.781 108.5C135.781 106.12 136.491 104.25 137.911 102.89C139.351 101.53 141.341 100.85 143.881 100.85C145.441 100.85 146.821 101.1 148.021 101.6C149.241 102.08 150.191 102.77 150.871 103.67C151.551 104.55 151.891 105.56 151.891 106.7C151.891 107.58 151.631 108.26 151.111 108.74C150.611 109.22 149.891 109.46 148.951 109.46H138.541C138.541 110.86 139.011 111.95 139.951 112.73C140.911 113.49 142.271 113.87 144.031 113.87C145.071 113.87 145.971 113.76 146.731 113.54C147.511 113.32 148.241 112.96 148.921 112.46C149.421 112.12 149.801 111.95 150.061 111.95C150.301 111.95 150.521 112.05 150.721 112.25C151.001 112.53 151.141 112.82 151.141 113.12C151.141 113.42 151.001 113.7 150.721 113.96C149.081 115.42 146.851 116.15 144.031 116.15ZM148.111 107.36C148.471 107.36 148.731 107.29 148.891 107.15C149.051 107.01 149.131 106.76 149.131 106.4C149.131 105.44 148.641 104.66 147.661 104.06C146.701 103.44 145.441 103.13 143.881 103.13C142.261 103.13 140.971 103.51 140.011 104.27C139.071 105.03 138.601 106.06 138.601 107.36H148.111ZM156.336 116.15C155.896 116.15 155.556 116.03 155.316 115.79C155.096 115.53 154.986 115.18 154.986 114.74V102.26C154.986 101.32 155.436 100.85 156.336 100.85C156.756 100.85 157.086 100.98 157.326 101.24C157.566 101.48 157.686 101.82 157.686 102.26V103.79C159.006 102.03 160.796 101.15 163.056 101.15H163.776C164.256 101.15 164.626 101.25 164.886 101.45C165.146 101.65 165.276 101.94 165.276 102.32C165.276 102.68 165.136 102.96 164.856 103.16C164.596 103.36 164.236 103.46 163.776 103.46H162.876C161.296 103.46 160.046 103.93 159.126 104.87C158.206 105.79 157.746 107.05 157.746 108.65V114.74C157.746 115.18 157.616 115.53 157.356 115.79C157.116 116.03 156.776 116.15 156.336 116.15ZM169.121 98.1199C168.601 98.1199 168.161 97.9599 167.801 97.6399C167.441 97.2999 167.261 96.8799 167.261 96.3799C167.261 95.8799 167.441 95.4599 167.801 95.1199C168.161 94.7799 168.601 94.6099 169.121 94.6099C169.681 94.6099 170.141 94.7799 170.501 95.1199C170.881 95.4599 171.071 95.8799 171.071 96.3799C171.071 96.8599 170.881 97.2699 170.501 97.6099C170.141 97.9499 169.681 98.1199 169.121 98.1199ZM169.151 116.15C168.711 116.15 168.371 116.03 168.131 115.79C167.891 115.53 167.771 115.18 167.771 114.74V102.26C167.771 101.82 167.891 101.48 168.131 101.24C168.371 100.98 168.711 100.85 169.151 100.85C169.591 100.85 169.931 100.98 170.171 101.24C170.411 101.48 170.531 101.82 170.531 102.26V114.74C170.531 115.18 170.411 115.53 170.171 115.79C169.931 116.03 169.591 116.15 169.151 116.15ZM180.489 116.15C178.549 116.15 177.009 115.71 175.869 114.83C174.749 113.95 174.189 112.76 174.189 111.26C174.189 109.76 174.779 108.57 175.959 107.69C177.159 106.81 178.789 106.37 180.849 106.37C181.929 106.37 182.889 106.51 183.729 106.79C184.589 107.07 185.279 107.45 185.799 107.93V106.43C185.799 105.35 185.449 104.53 184.749 103.97C184.069 103.39 183.059 103.1 181.719 103.1C179.939 103.1 178.399 103.51 177.099 104.33C176.719 104.55 176.389 104.66 176.109 104.66C175.849 104.66 175.589 104.55 175.329 104.33C175.109 104.11 174.999 103.85 174.999 103.55C174.999 103.21 175.169 102.9 175.509 102.62C176.229 102.08 177.139 101.65 178.239 101.33C179.339 101.01 180.489 100.85 181.689 100.85C183.869 100.85 185.569 101.35 186.789 102.35C188.009 103.33 188.619 104.71 188.619 106.49V114.8C188.619 115.24 188.499 115.58 188.259 115.82C188.039 116.04 187.709 116.15 187.269 116.15C186.829 116.15 186.489 116.04 186.249 115.82C186.009 115.58 185.889 115.26 185.889 114.86V114.02C184.689 115.44 182.889 116.15 180.489 116.15ZM180.969 114.02C182.429 114.02 183.599 113.76 184.479 113.24C185.379 112.7 185.829 112 185.829 111.14C185.829 110.3 185.399 109.65 184.539 109.19C183.699 108.71 182.529 108.47 181.029 108.47C179.729 108.47 178.729 108.71 178.029 109.19C177.329 109.67 176.979 110.36 176.979 111.26C176.979 112.14 177.319 112.82 177.999 113.3C178.699 113.78 179.689 114.02 180.969 114.02ZM194.172 116.15C193.732 116.15 193.392 116.03 193.152 115.79C192.932 115.53 192.822 115.18 192.822 114.74V94.4899C192.822 94.0299 192.932 93.6799 193.152 93.4399C193.392 93.1999 193.732 93.0799 194.172 93.0799C194.612 93.0799 194.952 93.2099 195.192 93.4699C195.452 93.7099 195.582 94.0499 195.582 94.4899V114.74C195.582 115.18 195.452 115.53 195.192 115.79C194.952 116.03 194.612 116.15 194.172 116.15ZM206.616 116.15C205.076 116.15 203.706 115.89 202.506 115.37C201.306 114.83 200.356 114.11 199.656 113.21C199.456 112.95 199.356 112.69 199.356 112.43C199.356 111.99 199.566 111.66 199.986 111.44C200.166 111.34 200.356 111.29 200.556 111.29C200.896 111.29 201.246 111.47 201.606 111.83C202.266 112.53 202.996 113.04 203.796 113.36C204.596 113.68 205.516 113.84 206.556 113.84C207.516 113.84 208.296 113.69 208.896 113.39C209.516 113.07 209.826 112.64 209.826 112.1C209.826 111.7 209.706 111.37 209.466 111.11C209.246 110.85 208.856 110.6 208.296 110.36C207.736 110.12 206.856 109.8 205.656 109.4C203.636 108.76 202.206 108.1 201.366 107.42C200.546 106.74 200.136 105.85 200.136 104.75C200.136 103.57 200.646 102.63 201.666 101.93C202.706 101.21 204.106 100.85 205.866 100.85C207.166 100.85 208.366 101.07 209.466 101.51C210.586 101.93 211.416 102.51 211.956 103.25C212.136 103.49 212.226 103.74 212.226 104C212.226 104.34 212.046 104.63 211.686 104.87C211.426 105.03 211.166 105.11 210.906 105.11C210.506 105.11 210.126 104.93 209.766 104.57C209.286 104.09 208.726 103.74 208.086 103.52C207.466 103.28 206.716 103.16 205.836 103.16C204.896 103.16 204.176 103.3 203.676 103.58C203.196 103.86 202.956 104.26 202.956 104.78C202.956 105.18 203.066 105.5 203.286 105.74C203.506 105.98 203.886 106.21 204.426 106.43C204.966 106.65 205.866 106.96 207.126 107.36C208.526 107.8 209.616 108.24 210.396 108.68C211.196 109.12 211.766 109.61 212.106 110.15C212.446 110.69 212.616 111.34 212.616 112.1C212.616 113.32 212.066 114.3 210.966 115.04C209.886 115.78 208.436 116.15 206.616 116.15Z" fill="white"/>
<path d="M29.5999 215.774L44.7717 195.558C46.9437 192.664 52.4167 192.257 54.6637 194.823L70.0532 212.397C72.2955 214.957 69.6639 218.584 65.289 218.962L34.7277 221.605C30.2669 221.99 27.3898 218.719 29.5999 215.774Z" fill="#DED0EE"/>
<defs>
<filter id="filter0_dddddd_180_33" x="7.29004" y="7.38135" width="346.951" height="243.112" filterUnits="userSpaceOnUse" color-interpolation-filters="sRGB">
<feFlood flood-opacity="0" result="BackgroundImageFix"/>
<feColorMatrix in="SourceAlpha" type="matrix" values="0 0 0 0 0 0 0 0 0 0 0 0 0 0 0 0 0 0 127 0" result="hardAlpha"/>
<feOffset dy="4"/>
<feGaussianBlur stdDeviation="2"/>
<feComposite in2="hardAlpha" operator="out"/>
<feColorMatrix type="matrix" values="0 0 0 0 0 0 0 0 0 0 0 0 0 0 0 0 0 0 0.25 0"/>
<feBlend mode="normal" in2="BackgroundImageFix" result="effect1_dropShadow_180_33"/>
<feColorMatrix in="SourceAlpha" type="matrix" values="0 0 0 0 0 0 0 0 0 0 0 0 0 0 0 0 0 0 127 0" result="hardAlpha"/>
<feOffset dy="4"/>
<feGaussianBlur stdDeviation="2"/>
<feComposite in2="hardAlpha" operator="out"/>
<feColorMatrix type="matrix" values="0 0 0 0 0 0 0 0 0 0 0 0 0 0 0 0 0 0 0.25 0"/>
<feBlend mode="normal" in2="effect1_dropShadow_180_33" result="effect2_dropShadow_180_33"/>
<feColorMatrix in="SourceAlpha" type="matrix" values="0 0 0 0 0 0 0 0 0 0 0 0 0 0 0 0 0 0 127 0" result="hardAlpha"/>
<feOffset dy="4"/>
<feGaussianBlur stdDeviation="2"/>
<feComposite in2="hardAlpha" operator="out"/>
<feColorMatrix type="matrix" values="0 0 0 0 0 0 0 0 0 0 0 0 0 0 0 0 0 0 0.25 0"/>
<feBlend mode="normal" in2="effect2_dropShadow_180_33" result="effect3_dropShadow_180_33"/>
<feColorMatrix in="SourceAlpha" type="matrix" values="0 0 0 0 0 0 0 0 0 0 0 0 0 0 0 0 0 0 127 0" result="hardAlpha"/>
<feOffset dy="4"/>
<feGaussianBlur stdDeviation="2"/>
<feComposite in2="hardAlpha" operator="out"/>
<feColorMatrix type="matrix" values="0 0 0 0 0 0 0 0 0 0 0 0 0 0 0 0 0 0 0.25 0"/>
<feBlend mode="normal" in2="effect3_dropShadow_180_33" result="effect4_dropShadow_180_33"/>
<feColorMatrix in="SourceAlpha" type="matrix" values="0 0 0 0 0 0 0 0 0 0 0 0 0 0 0 0 0 0 127 0" result="hardAlpha"/>
<feOffset dy="4"/>
<feGaussianBlur stdDeviation="2"/>
<feComposite in2="hardAlpha" operator="out"/>
<feColorMatrix type="matrix" values="0 0 0 0 0 0 0 0 0 0 0 0 0 0 0 0 0 0 0.25 0"/>
<feBlend mode="normal" in2="effect4_dropShadow_180_33" result="effect5_dropShadow_180_33"/>
<feColorMatrix in="SourceAlpha" type="matrix" values="0 0 0 0 0 0 0 0 0 0 0 0 0 0 0 0 0 0 127 0" result="hardAlpha"/>
<feOffset dy="4"/>
<feGaussianBlur stdDeviation="2"/>
<feComposite in2="hardAlpha" operator="out"/>
<feColorMatrix type="matrix" values="0 0 0 0 0 0 0 0 0 0 0 0 0 0 0 0 0 0 0.25 0"/>
<feBlend mode="normal" in2="effect5_dropShadow_180_33" result="effect6_dropShadow_180_33"/>
<feBlend mode="normal" in="SourceGraphic" in2="effect6_dropShadow_180_33" result="shape"/>
</filter>
</defs>
</svg>
