<svg width="361" height="218" viewBox="0 0 361 218" fill="none" xmlns="http://www.w3.org/2000/svg">
<g filter="url(#filter0_ddddddd_181_61)">
<path d="M52.4341 185.449C45.2159 181.191 40.5489 177.153 36.8657 173.963C-6.46216 136.469 5.72511 91.8807 8.71194 82.4018C13.1222 68.4059 21.651 41.3525 58.0933 21.6878C113.226 -8.06288 200.497 -3.76502 258.265 18.9599C268.829 23.1166 327.467 45.0641 337.202 90.0551C343.095 117.282 331.902 149.085 301.389 172.194C237.337 220.704 107.133 217.722 52.4341 185.449Z" fill="#FAD59D"/>
</g>
<path d="M76.7683 139.623C76.0056 139.623 75.4043 139.418 74.9643 139.007C74.5243 138.596 74.3043 138.024 74.3043 137.291V114.499C74.3043 112.592 74.8616 111.096 75.9763 110.011C77.0909 108.926 78.6456 108.383 80.6403 108.383H88.1203C92.4616 108.383 95.7469 109.292 97.9763 111.111C100.235 112.93 101.364 115.614 101.364 119.163C101.364 122.654 100.25 125.308 98.0203 127.127C95.8203 128.916 92.5936 129.811 88.3403 129.811H79.3203V137.291C79.3203 137.995 79.0856 138.567 78.6163 139.007C78.1469 139.418 77.5309 139.623 76.7683 139.623ZM88.2963 125.851C93.6349 125.851 96.3043 123.622 96.3043 119.163C96.3043 116.816 95.6296 115.086 94.2803 113.971C92.9603 112.856 90.9803 112.299 88.3403 112.299H81.3443C80.6989 112.299 80.2003 112.504 79.8483 112.915C79.4963 113.326 79.3203 113.883 79.3203 114.587V125.851H88.2963ZM112.435 139.623C109.649 139.623 107.419 138.963 105.747 137.643C104.075 136.323 103.239 134.563 103.239 132.363C103.239 130.192 104.119 128.462 105.879 127.171C107.669 125.88 110.074 125.235 113.095 125.235C116.029 125.235 118.317 125.91 119.959 127.259V125.587C119.959 124.12 119.49 123.006 118.551 122.243C117.642 121.451 116.293 121.055 114.503 121.055C111.981 121.055 109.81 121.612 107.991 122.727C107.375 123.079 106.818 123.255 106.319 123.255C105.791 123.255 105.307 123.02 104.867 122.551C104.574 122.228 104.427 121.847 104.427 121.407C104.427 120.703 104.735 120.146 105.351 119.735C106.407 118.943 107.742 118.327 109.355 117.887C110.969 117.418 112.655 117.183 114.415 117.183C117.73 117.183 120.326 117.931 122.203 119.427C124.081 120.923 125.019 122.991 125.019 125.631V137.423C125.019 138.098 124.799 138.64 124.359 139.051C123.919 139.432 123.318 139.623 122.555 139.623C121.793 139.623 121.191 139.432 120.751 139.051C120.341 138.67 120.135 138.142 120.135 137.467V136.631C118.405 138.626 115.838 139.623 112.435 139.623ZM113.491 136.015C115.486 136.015 117.07 135.692 118.243 135.047C119.417 134.372 120.003 133.463 120.003 132.319C120.003 131.204 119.431 130.324 118.287 129.679C117.143 129.034 115.574 128.711 113.579 128.711C111.849 128.711 110.499 129.034 109.531 129.679C108.593 130.324 108.123 131.219 108.123 132.363C108.123 133.536 108.578 134.446 109.487 135.091C110.426 135.707 111.761 136.015 113.491 136.015ZM132.016 139.623C131.253 139.623 130.652 139.418 130.212 139.007C129.772 138.596 129.552 138.024 129.552 137.291V119.515C129.552 118.782 129.757 118.21 130.168 117.799C130.608 117.388 131.194 117.183 131.928 117.183C132.69 117.183 133.277 117.388 133.688 117.799C134.128 118.21 134.348 118.782 134.348 119.515V121.363C136.254 118.87 138.762 117.623 141.872 117.623H142.884C143.676 117.623 144.292 117.799 144.732 118.151C145.201 118.503 145.436 118.987 145.436 119.603C145.436 120.248 145.201 120.747 144.732 121.099C144.292 121.422 143.676 121.583 142.884 121.583H141.476C139.334 121.583 137.633 122.243 136.372 123.563C135.11 124.854 134.48 126.628 134.48 128.887V137.291C134.48 137.995 134.245 138.567 133.776 139.007C133.336 139.418 132.749 139.623 132.016 139.623ZM158.398 139.623C155.876 139.623 153.676 139.183 151.798 138.303C149.95 137.394 148.528 136.103 147.53 134.431C146.562 132.759 146.078 130.779 146.078 128.491C146.078 124.942 147.134 122.17 149.246 120.175C151.358 118.18 154.292 117.183 158.046 117.183C160.364 117.183 162.417 117.55 164.206 118.283C165.996 119.016 167.389 120.043 168.386 121.363C169.384 122.654 169.882 124.135 169.882 125.807C169.882 127.156 169.472 128.198 168.65 128.931C167.829 129.664 166.67 130.031 165.174 130.031H150.918C150.918 131.85 151.564 133.258 152.854 134.255C154.145 135.252 155.993 135.751 158.398 135.751C159.777 135.751 160.994 135.604 162.05 135.311C163.106 135.018 164.089 134.548 164.998 133.903C165.849 133.346 166.494 133.067 166.934 133.067C167.316 133.067 167.712 133.272 168.122 133.683C168.592 134.123 168.826 134.607 168.826 135.135C168.826 135.692 168.577 136.162 168.078 136.543C165.614 138.596 162.388 139.623 158.398 139.623ZM163.678 126.467C164.177 126.467 164.544 126.364 164.778 126.159C165.013 125.954 165.13 125.602 165.13 125.103C165.13 123.9 164.485 122.932 163.194 122.199C161.904 121.436 160.188 121.055 158.046 121.055C155.876 121.055 154.16 121.554 152.898 122.551C151.637 123.519 151.006 124.824 151.006 126.467H163.678ZM176.445 139.623C175.683 139.623 175.081 139.418 174.641 139.007C174.201 138.596 173.981 138.024 173.981 137.291V119.515C173.981 118.782 174.187 118.21 174.597 117.799C175.037 117.388 175.624 117.183 176.357 117.183C177.12 117.183 177.707 117.388 178.117 117.799C178.557 118.21 178.777 118.782 178.777 119.515V121.231C180.948 118.532 183.852 117.183 187.489 117.183C190.276 117.183 192.461 118.034 194.045 119.735C195.659 121.436 196.465 123.783 196.465 126.775V137.291C196.465 138.024 196.231 138.596 195.761 139.007C195.321 139.418 194.72 139.623 193.957 139.623C193.195 139.623 192.593 139.418 192.153 139.007C191.743 138.596 191.537 138.024 191.537 137.291V126.775C191.537 124.956 191.097 123.563 190.217 122.595C189.337 121.627 188.091 121.143 186.477 121.143C184.131 121.143 182.283 121.847 180.933 123.255C179.584 124.634 178.909 126.511 178.909 128.887V137.291C178.909 137.995 178.675 138.567 178.205 139.007C177.765 139.418 177.179 139.623 176.445 139.623ZM217.861 133.947C218.301 134.299 218.521 134.71 218.521 135.179C218.521 135.678 218.33 136.176 217.949 136.675C217.333 137.584 216.453 138.303 215.309 138.831C214.165 139.359 212.903 139.623 211.525 139.623C209.325 139.623 207.594 139.007 206.333 137.775C205.071 136.543 204.441 134.856 204.441 132.715V121.539H202.461C201.669 121.539 201.038 121.363 200.569 121.011C200.129 120.659 199.909 120.19 199.909 119.603C199.909 118.987 200.129 118.503 200.569 118.151C201.038 117.799 201.669 117.623 202.461 117.623H204.441V110.671C204.441 109.938 204.661 109.366 205.101 108.955C205.541 108.544 206.142 108.339 206.905 108.339C207.667 108.339 208.269 108.544 208.709 108.955C209.149 109.366 209.369 109.938 209.369 110.671V117.623H214.165C214.927 117.623 215.529 117.799 215.969 118.151C216.438 118.503 216.673 118.987 216.673 119.603C216.673 120.19 216.453 120.659 216.013 121.011C215.573 121.363 214.957 121.539 214.165 121.539H209.369V133.111C209.369 133.903 209.589 134.534 210.029 135.003C210.469 135.443 211.085 135.663 211.877 135.663C212.962 135.663 213.93 135.238 214.781 134.387C215.455 133.771 216.071 133.463 216.629 133.463C217.098 133.463 217.509 133.624 217.861 133.947ZM232.444 139.623C230.039 139.623 227.971 139.256 226.24 138.523C224.539 137.76 223.16 136.734 222.104 135.443C221.752 134.944 221.576 134.475 221.576 134.035C221.576 133.331 221.914 132.774 222.588 132.363C222.999 132.128 223.38 132.011 223.732 132.011C224.29 132.011 224.847 132.29 225.404 132.847C226.402 133.844 227.414 134.578 228.44 135.047C229.496 135.487 230.758 135.707 232.224 135.707C233.574 135.707 234.674 135.516 235.524 135.135C236.375 134.754 236.8 134.24 236.8 133.595C236.8 133.096 236.639 132.686 236.316 132.363C236.023 132.011 235.495 131.674 234.732 131.351C233.97 131.028 232.782 130.603 231.168 130.075C228.059 129.078 225.859 128.066 224.568 127.039C223.307 125.983 222.676 124.648 222.676 123.035C222.676 121.216 223.454 119.794 225.008 118.767C226.563 117.711 228.675 117.183 231.344 117.183C233.368 117.183 235.216 117.506 236.888 118.151C238.56 118.796 239.792 119.647 240.584 120.703C240.907 121.114 241.068 121.554 241.068 122.023C241.068 122.61 240.76 123.108 240.144 123.519C239.763 123.783 239.323 123.915 238.824 123.915C238.15 123.915 237.475 123.607 236.8 122.991C235.48 121.73 233.647 121.099 231.3 121.099C228.866 121.099 227.648 121.744 227.648 123.035C227.648 123.534 227.81 123.944 228.132 124.267C228.455 124.59 229.012 124.912 229.804 125.235C230.626 125.528 231.946 125.968 233.764 126.555C235.759 127.171 237.328 127.802 238.472 128.447C239.616 129.092 240.438 129.826 240.936 130.647C241.435 131.439 241.684 132.422 241.684 133.595C241.684 135.414 240.863 136.88 239.22 137.995C237.578 139.08 235.319 139.623 232.444 139.623Z" fill="#5B67A8"/>
<path d="M83.6983 93.1059C81.5383 93.1059 79.6483 92.6659 78.0283 91.7859C76.4283 90.9059 75.1883 89.6559 74.3083 88.0359C73.4483 86.4159 73.0183 84.5159 73.0183 82.3359C73.0183 80.1559 73.4483 78.2559 74.3083 76.6359C75.1883 74.9959 76.4283 73.7359 78.0283 72.8559C79.6483 71.9559 81.5283 71.5059 83.6683 71.5059C85.4283 71.5059 87.0583 71.8059 88.5583 72.4059C90.0583 73.0059 91.1983 73.8259 91.9783 74.8659C92.1783 75.0859 92.2783 75.3459 92.2783 75.6459C92.2783 76.0459 92.0983 76.3659 91.7383 76.6059C91.5383 76.7459 91.3083 76.8159 91.0483 76.8159C90.8283 76.8159 90.5983 76.7659 90.3583 76.6659C90.1383 76.5659 89.9583 76.4259 89.8183 76.2459C89.1983 75.4659 88.3683 74.8759 87.3283 74.4759C86.2883 74.0559 85.0683 73.8459 83.6683 73.8459C81.2483 73.8459 79.3483 74.6059 77.9683 76.1259C76.5883 77.6259 75.8983 79.6959 75.8983 82.3359C75.8983 84.9759 76.5883 87.0459 77.9683 88.5459C79.3483 90.0259 81.2583 90.7659 83.6983 90.7659C84.9983 90.7659 86.1383 90.5759 87.1183 90.1959C88.1183 89.7959 88.8883 89.2459 89.4283 88.5459C89.9683 87.8259 90.2383 87.0059 90.2383 86.0859V85.1859C90.2383 84.6859 90.1383 84.3259 89.9383 84.1059C89.7383 83.8859 89.3683 83.7759 88.8283 83.7759H84.4783C84.0383 83.7759 83.6983 83.6859 83.4583 83.5059C83.2183 83.3059 83.0983 83.0259 83.0983 82.6659C83.0983 81.9059 83.5583 81.5259 84.4783 81.5259H89.6983C90.8583 81.5259 91.7083 81.7759 92.2483 82.2759C92.8083 82.7759 93.0883 83.5459 93.0883 84.5859V85.7259C93.0883 87.1259 92.6783 88.3859 91.8583 89.5059C91.0583 90.6259 89.9383 91.5059 88.4983 92.1459C87.0783 92.7859 85.4783 93.1059 83.6983 93.1059ZM102.733 93.1059C100.733 93.1059 99.1728 92.5359 98.0528 91.3959C96.9328 90.2359 96.3728 88.6459 96.3728 86.6259V79.2159C96.3728 78.7759 96.4928 78.4359 96.7328 78.1959C96.9928 77.9359 97.3328 77.8059 97.7528 77.8059C98.1928 77.8059 98.5328 77.9359 98.7728 78.1959C99.0128 78.4359 99.1328 78.7759 99.1328 79.2159V86.6259C99.1328 87.9459 99.4828 88.9759 100.183 89.7159C100.903 90.4359 101.903 90.7959 103.183 90.7959C104.743 90.7959 105.993 90.2959 106.933 89.2959C107.893 88.2959 108.373 86.9659 108.373 85.3059V79.2159C108.373 78.7759 108.493 78.4359 108.733 78.1959C108.993 77.9359 109.343 77.8059 109.783 77.8059C110.223 77.8059 110.553 77.9259 110.773 78.1659C111.013 78.4059 111.133 78.7559 111.133 79.2159V91.6959C111.133 92.1559 111.013 92.5059 110.773 92.7459C110.553 92.9859 110.223 93.1059 109.783 93.1059C109.343 93.1059 109.003 92.9859 108.763 92.7459C108.523 92.4859 108.403 92.1359 108.403 91.6959V90.2259C106.903 92.1459 105.013 93.1059 102.733 93.1059ZM116.752 75.0759C116.232 75.0759 115.792 74.9159 115.432 74.5959C115.072 74.2559 114.892 73.8359 114.892 73.3359C114.892 72.8359 115.072 72.4159 115.432 72.0759C115.792 71.7359 116.232 71.5659 116.752 71.5659C117.312 71.5659 117.772 71.7359 118.132 72.0759C118.512 72.4159 118.702 72.8359 118.702 73.3359C118.702 73.8159 118.512 74.2259 118.132 74.5659C117.772 74.9059 117.312 75.0759 116.752 75.0759ZM116.782 93.1059C116.342 93.1059 116.002 92.9859 115.762 92.7459C115.522 92.4859 115.402 92.1359 115.402 91.6959V79.2159C115.402 78.7759 115.522 78.4359 115.762 78.1959C116.002 77.9359 116.342 77.8059 116.782 77.8059C117.222 77.8059 117.562 77.9359 117.802 78.1959C118.042 78.4359 118.162 78.7759 118.162 79.2159V91.6959C118.162 92.1359 118.042 92.4859 117.802 92.7459C117.562 92.9859 117.222 93.1059 116.782 93.1059ZM129.83 93.1059C128.21 93.1059 126.8 92.8059 125.6 92.2059C124.4 91.5859 123.47 90.7059 122.81 89.5659C122.15 88.4259 121.82 87.0759 121.82 85.5159C121.82 84.0159 122.13 82.6859 122.75 81.5259C123.39 80.3459 124.32 79.4359 125.54 78.7959C126.76 78.1359 128.21 77.8059 129.89 77.8059C131.25 77.8059 132.4 78.0559 133.34 78.5559C134.3 79.0359 135.17 79.7259 135.95 80.6259L135.98 71.4459C135.98 71.0059 136.1 70.6659 136.34 70.4259C136.6 70.1659 136.95 70.0359 137.39 70.0359C137.81 70.0359 138.14 70.1659 138.38 70.4259C138.62 70.6659 138.74 71.0059 138.74 71.4459V91.6959C138.74 92.1359 138.62 92.4859 138.38 92.7459C138.14 92.9859 137.81 93.1059 137.39 93.1059C136.95 93.1059 136.6 92.9859 136.34 92.7459C136.1 92.4859 135.98 92.1359 135.98 91.6959V90.2259C134.58 92.1459 132.53 93.1059 129.83 93.1059ZM130.13 90.7959C131.95 90.7959 133.38 90.3259 134.42 89.3859C135.46 88.4259 135.98 87.1159 135.98 85.4559C135.98 83.8159 135.43 82.5159 134.33 81.5559C133.23 80.5959 131.84 80.1159 130.16 80.1159C128.42 80.1159 127.06 80.6059 126.08 81.5859C125.1 82.5659 124.61 83.8759 124.61 85.5159C124.61 87.2359 125.09 88.5459 126.05 89.4459C127.03 90.3459 128.39 90.7959 130.13 90.7959ZM148.13 93.1059C146.19 93.1059 144.65 92.6659 143.51 91.7859C142.39 90.9059 141.83 89.7159 141.83 88.2159C141.83 86.7159 142.42 85.5259 143.6 84.6459C144.8 83.7659 146.43 83.3259 148.49 83.3259C149.57 83.3259 150.53 83.4659 151.37 83.7459C152.23 84.0259 152.92 84.4059 153.44 84.8859V83.3859C153.44 82.3059 153.09 81.4859 152.39 80.9259C151.71 80.3459 150.7 80.0559 149.36 80.0559C147.58 80.0559 146.04 80.4659 144.74 81.2859C144.36 81.5059 144.03 81.6159 143.75 81.6159C143.49 81.6159 143.23 81.5059 142.97 81.2859C142.75 81.0659 142.64 80.8059 142.64 80.5059C142.64 80.1659 142.81 79.8559 143.15 79.5759C143.87 79.0359 144.78 78.6059 145.88 78.2859C146.98 77.9659 148.13 77.8059 149.33 77.8059C151.51 77.8059 153.21 78.3059 154.43 79.3059C155.65 80.2859 156.26 81.6659 156.26 83.4459V91.7559C156.26 92.1959 156.14 92.5359 155.9 92.7759C155.68 92.9959 155.35 93.1059 154.91 93.1059C154.47 93.1059 154.13 92.9959 153.89 92.7759C153.65 92.5359 153.53 92.2159 153.53 91.8159V90.9759C152.33 92.3959 150.53 93.1059 148.13 93.1059ZM148.61 90.9759C150.07 90.9759 151.24 90.7159 152.12 90.1959C153.02 89.6559 153.47 88.9559 153.47 88.0959C153.47 87.2559 153.04 86.6059 152.18 86.1459C151.34 85.6659 150.17 85.4259 148.67 85.4259C147.37 85.4259 146.37 85.6659 145.67 86.1459C144.97 86.6259 144.62 87.3159 144.62 88.2159C144.62 89.0959 144.96 89.7759 145.64 90.2559C146.34 90.7359 147.33 90.9759 148.61 90.9759ZM161.213 93.1059C160.773 93.1059 160.433 92.9859 160.193 92.7459C159.973 92.4859 159.863 92.1359 159.863 91.6959V79.2159C159.863 78.2759 160.313 77.8059 161.213 77.8059C161.633 77.8059 161.963 77.9359 162.203 78.1959C162.443 78.4359 162.563 78.7759 162.563 79.2159V80.6859C164.043 78.7659 166.053 77.8059 168.593 77.8059C170.513 77.8059 171.993 78.3659 173.033 79.4859C174.093 80.5859 174.623 82.1459 174.623 84.1659V91.6959C174.623 92.1359 174.493 92.4859 174.233 92.7459C173.993 92.9859 173.663 93.1059 173.243 93.1059C172.803 93.1059 172.463 92.9859 172.223 92.7459C171.983 92.4859 171.863 92.1359 171.863 91.6959V84.1659C171.863 82.8259 171.543 81.8159 170.903 81.1359C170.283 80.4559 169.353 80.1159 168.113 80.1159C166.433 80.1159 165.093 80.6159 164.093 81.6159C163.113 82.5959 162.623 83.9259 162.623 85.6059V91.6959C162.623 92.1359 162.493 92.4859 162.233 92.7459C161.993 92.9859 161.653 93.1059 161.213 93.1059ZM185.792 93.1059C184.132 93.1059 182.682 92.7959 181.442 92.1759C180.202 91.5559 179.252 90.6659 178.592 89.5059C177.932 88.3459 177.602 86.9859 177.602 85.4259C177.602 83.8859 177.932 82.5459 178.592 81.4059C179.252 80.2459 180.202 79.3559 181.442 78.7359C182.682 78.1159 184.132 77.8059 185.792 77.8059C187.272 77.8059 188.572 78.0259 189.692 78.4659C190.812 78.9059 191.682 79.5359 192.302 80.3559C192.502 80.5759 192.602 80.8359 192.602 81.1359C192.602 81.4959 192.412 81.8159 192.032 82.0959C191.872 82.2359 191.652 82.3059 191.372 82.3059C190.932 82.3059 190.532 82.1259 190.172 81.7659C189.192 80.6659 187.732 80.1159 185.792 80.1159C184.072 80.1159 182.742 80.5759 181.802 81.4959C180.862 82.4159 180.392 83.7259 180.392 85.4259C180.392 87.1259 180.862 88.4459 181.802 89.3859C182.762 90.3259 184.092 90.7959 185.792 90.7959C186.732 90.7959 187.602 90.6559 188.402 90.3759C189.202 90.0759 189.882 89.6459 190.442 89.0859C190.862 88.6659 191.262 88.4559 191.642 88.4559C191.882 88.4559 192.122 88.5459 192.362 88.7259C192.682 89.0259 192.842 89.3559 192.842 89.7159C192.842 90.0159 192.732 90.2759 192.512 90.4959C191.552 91.3959 190.532 92.0559 189.452 92.4759C188.372 92.8959 187.152 93.1059 185.792 93.1059ZM203.576 93.1059C200.976 93.1059 198.946 92.4359 197.486 91.0959C196.046 89.7359 195.326 87.8559 195.326 85.4559C195.326 83.0759 196.036 81.2059 197.456 79.8459C198.896 78.4859 200.886 77.8059 203.426 77.8059C204.986 77.8059 206.366 78.0559 207.566 78.5559C208.786 79.0359 209.736 79.7259 210.416 80.6259C211.096 81.5059 211.436 82.5159 211.436 83.6559C211.436 84.5359 211.176 85.2159 210.656 85.6959C210.156 86.1759 209.436 86.4159 208.496 86.4159H198.086C198.086 87.8159 198.556 88.9059 199.496 89.6859C200.456 90.4459 201.816 90.8259 203.576 90.8259C204.616 90.8259 205.516 90.7159 206.276 90.4959C207.056 90.2759 207.786 89.9159 208.466 89.4159C208.966 89.0759 209.346 88.9059 209.606 88.9059C209.846 88.9059 210.066 89.0059 210.266 89.2059C210.546 89.4859 210.686 89.7759 210.686 90.0759C210.686 90.3759 210.546 90.6559 210.266 90.9159C208.626 92.3759 206.396 93.1059 203.576 93.1059ZM207.656 84.3159C208.016 84.3159 208.276 84.2459 208.436 84.1059C208.596 83.9659 208.676 83.7159 208.676 83.3559C208.676 82.3959 208.186 81.6159 207.206 81.0159C206.246 80.3959 204.986 80.0859 203.426 80.0859C201.806 80.0859 200.516 80.4659 199.556 81.2259C198.616 81.9859 198.146 83.0159 198.146 84.3159H207.656Z" fill="#5B67A8"/>
<path d="M46.9216 171.598L65.1505 186.592C68.2141 189.112 67.1258 193.016 63.162 193.725L35.2525 198.721C30.8415 199.51 26.6512 195.773 28.2486 192.475L37.9292 172.485C39.2902 169.675 44.017 169.208 46.9216 171.598Z" fill="#FAD59D"/>
<defs>
<filter id="filter0_ddddddd_181_61" x="0.853271" y="0.641113" width="341.862" height="216.597" filterUnits="userSpaceOnUse" color-interpolation-filters="sRGB">
<feFlood flood-opacity="0" result="BackgroundImageFix"/>
<feColorMatrix in="SourceAlpha" type="matrix" values="0 0 0 0 0 0 0 0 0 0 0 0 0 0 0 0 0 0 127 0" result="hardAlpha"/>
<feOffset dy="4"/>
<feGaussianBlur stdDeviation="2"/>
<feComposite in2="hardAlpha" operator="out"/>
<feColorMatrix type="matrix" values="0 0 0 0 0 0 0 0 0 0 0 0 0 0 0 0 0 0 0.25 0"/>
<feBlend mode="normal" in2="BackgroundImageFix" result="effect1_dropShadow_181_61"/>
<feColorMatrix in="SourceAlpha" type="matrix" values="0 0 0 0 0 0 0 0 0 0 0 0 0 0 0 0 0 0 127 0" result="hardAlpha"/>
<feOffset dy="4"/>
<feGaussianBlur stdDeviation="2"/>
<feComposite in2="hardAlpha" operator="out"/>
<feColorMatrix type="matrix" values="0 0 0 0 0 0 0 0 0 0 0 0 0 0 0 0 0 0 0.25 0"/>
<feBlend mode="normal" in2="effect1_dropShadow_181_61" result="effect2_dropShadow_181_61"/>
<feColorMatrix in="SourceAlpha" type="matrix" values="0 0 0 0 0 0 0 0 0 0 0 0 0 0 0 0 0 0 127 0" result="hardAlpha"/>
<feOffset dy="4"/>
<feGaussianBlur stdDeviation="2"/>
<feComposite in2="hardAlpha" operator="out"/>
<feColorMatrix type="matrix" values="0 0 0 0 0 0 0 0 0 0 0 0 0 0 0 0 0 0 0.25 0"/>
<feBlend mode="normal" in2="effect2_dropShadow_181_61" result="effect3_dropShadow_181_61"/>
<feColorMatrix in="SourceAlpha" type="matrix" values="0 0 0 0 0 0 0 0 0 0 0 0 0 0 0 0 0 0 127 0" result="hardAlpha"/>
<feOffset dy="4"/>
<feGaussianBlur stdDeviation="2"/>
<feComposite in2="hardAlpha" operator="out"/>
<feColorMatrix type="matrix" values="0 0 0 0 0 0 0 0 0 0 0 0 0 0 0 0 0 0 0.25 0"/>
<feBlend mode="normal" in2="effect3_dropShadow_181_61" result="effect4_dropShadow_181_61"/>
<feColorMatrix in="SourceAlpha" type="matrix" values="0 0 0 0 0 0 0 0 0 0 0 0 0 0 0 0 0 0 127 0" result="hardAlpha"/>
<feOffset dy="4"/>
<feGaussianBlur stdDeviation="2"/>
<feComposite in2="hardAlpha" operator="out"/>
<feColorMatrix type="matrix" values="0 0 0 0 0 0 0 0 0 0 0 0 0 0 0 0 0 0 0.25 0"/>
<feBlend mode="normal" in2="effect4_dropShadow_181_61" result="effect5_dropShadow_181_61"/>
<feColorMatrix in="SourceAlpha" type="matrix" values="0 0 0 0 0 0 0 0 0 0 0 0 0 0 0 0 0 0 127 0" result="hardAlpha"/>
<feOffset dy="4"/>
<feGaussianBlur stdDeviation="2"/>
<feComposite in2="hardAlpha" operator="out"/>
<feColorMatrix type="matrix" values="0 0 0 0 0 0 0 0 0 0 0 0 0 0 0 0 0 0 0.25 0"/>
<feBlend mode="normal" in2="effect5_dropShadow_181_61" result="effect6_dropShadow_181_61"/>
<feColorMatrix in="SourceAlpha" type="matrix" values="0 0 0 0 0 0 0 0 0 0 0 0 0 0 0 0 0 0 127 0" result="hardAlpha"/>
<feOffset dy="4"/>
<feGaussianBlur stdDeviation="2"/>
<feComposite in2="hardAlpha" operator="out"/>
<feColorMatrix type="matrix" values="0 0 0 0 0 0 0 0 0 0 0 0 0 0 0 0 0 0 0.25 0"/>
<feBlend mode="normal" in2="effect6_dropShadow_181_61" result="effect7_dropShadow_181_61"/>
<feBlend mode="normal" in="SourceGraphic" in2="effect7_dropShadow_181_61" result="shape"/>
</filter>
</defs>
</svg>
