<svg width="389" height="243" viewBox="0 0 389 243" fill="none" xmlns="http://www.w3.org/2000/svg">
<g filter="url(#filter0_dddddd_180_45)">
<path d="M342.833 192.577C336.131 197.781 329.592 201.272 324.426 204.028C263.702 236.44 186.071 232.757 169.534 231.711C145.117 230.167 97.9197 227.181 61.0415 204.966C5.24853 171.357 5.21225 113.092 39.3382 72.5649C45.5806 65.1538 78.2972 24.1268 154.755 13.2407C201.025 6.65168 256.608 10.936 298.899 28.8818C387.675 66.5531 393.622 153.143 342.833 192.577Z" fill="#9BBCF1"/>
<path d="M324.161 203.587L324.401 203.987L324.161 203.587C263.565 235.931 186.06 232.261 169.529 231.216C145.092 229.671 98.0266 226.683 61.2803 204.547C33.5188 187.824 19.6684 165 16.9708 141.341C14.271 117.662 22.7364 93.086 39.7356 72.8983C39.8826 72.7237 40.0444 72.5303 40.2213 72.319C47.5184 63.6003 80.38 24.337 154.863 13.732L154.791 13.404L154.863 13.732C201.068 7.15234 256.55 11.4369 298.73 29.3354C342.973 48.1097 366.512 79.0381 372.709 110.129C378.908 141.233 367.764 172.566 342.503 192.179C335.835 197.357 329.328 200.832 324.161 203.587Z" stroke="black"/>
</g>
<path d="M98.1613 155.413C94.9346 155.413 92.1186 154.782 89.7133 153.521C87.3373 152.23 85.504 150.397 84.2133 148.021C82.952 145.645 82.3213 142.844 82.3213 139.617C82.3213 136.39 82.952 133.589 84.2133 131.213C85.504 128.808 87.3373 126.96 89.7133 125.669C92.0893 124.378 94.8906 123.733 98.1173 123.733C100.757 123.733 103.207 124.188 105.465 125.097C107.724 126.006 109.425 127.238 110.569 128.793C110.892 129.262 111.053 129.688 111.053 130.069C111.053 130.714 110.716 131.286 110.041 131.785C109.66 132.02 109.264 132.137 108.853 132.137C108.472 132.137 108.091 132.049 107.709 131.873C107.357 131.697 107.049 131.462 106.785 131.169C105.817 129.996 104.615 129.13 103.177 128.573C101.769 128.016 100.083 127.737 98.1173 127.737C94.744 127.737 92.104 128.793 90.1973 130.905C88.32 132.988 87.3813 135.892 87.3813 139.617C87.3813 143.284 88.3346 146.173 90.2413 148.285C92.148 150.368 94.7879 151.409 98.1613 151.409C102.151 151.409 105.216 150.265 107.357 147.977C108.061 147.273 108.78 146.921 109.513 146.921C109.983 146.921 110.408 147.068 110.789 147.361C111.376 147.86 111.669 148.402 111.669 148.989C111.669 149.488 111.493 149.957 111.141 150.397C109.88 151.952 108.105 153.184 105.817 154.093C103.529 154.973 100.977 155.413 98.1613 155.413ZM118.607 155.413C117.844 155.413 117.243 155.208 116.803 154.797C116.363 154.386 116.143 153.814 116.143 153.081V123.909C116.143 123.176 116.363 122.604 116.803 122.193C117.243 121.782 117.844 121.577 118.607 121.577C119.37 121.577 119.971 121.782 120.411 122.193C120.851 122.604 121.071 123.176 121.071 123.909V137.021C123.212 134.322 126.072 132.973 129.651 132.973C132.438 132.973 134.623 133.824 136.207 135.525C137.82 137.226 138.627 139.573 138.627 142.565V153.081C138.627 153.814 138.392 154.386 137.923 154.797C137.483 155.208 136.882 155.413 136.119 155.413C135.356 155.413 134.755 155.208 134.315 154.797C133.904 154.386 133.699 153.814 133.699 153.081V142.565C133.699 140.746 133.259 139.353 132.379 138.385C131.499 137.417 130.252 136.933 128.639 136.933C126.292 136.933 124.444 137.637 123.095 139.045C121.746 140.424 121.071 142.301 121.071 144.677V153.081C121.071 153.785 120.836 154.357 120.367 154.797C119.927 155.208 119.34 155.413 118.607 155.413ZM146.382 129.585C145.444 129.585 144.666 129.321 144.05 128.793C143.464 128.236 143.17 127.532 143.17 126.681C143.17 125.83 143.464 125.141 144.05 124.613C144.666 124.056 145.444 123.777 146.382 123.777C147.321 123.777 148.098 124.056 148.714 124.613C149.33 125.141 149.638 125.83 149.638 126.681C149.638 127.532 149.33 128.236 148.714 128.793C148.098 129.321 147.321 129.585 146.382 129.585ZM146.382 155.413C145.62 155.413 145.018 155.208 144.578 154.797C144.168 154.386 143.962 153.814 143.962 153.081V135.305C143.962 134.572 144.168 134 144.578 133.589C145.018 133.178 145.62 132.973 146.382 132.973C147.145 132.973 147.746 133.178 148.186 133.589C148.656 134 148.89 134.572 148.89 135.305V153.081C148.89 153.814 148.656 154.386 148.186 154.797C147.746 155.208 147.145 155.413 146.382 155.413ZM157.729 155.413C156.966 155.413 156.365 155.208 155.925 154.797C155.485 154.386 155.265 153.814 155.265 153.081V123.909C155.265 123.176 155.485 122.604 155.925 122.193C156.365 121.782 156.966 121.577 157.729 121.577C158.492 121.577 159.093 121.782 159.533 122.193C159.973 122.604 160.193 123.176 160.193 123.909V153.081C160.193 153.785 159.958 154.357 159.489 154.797C159.049 155.208 158.462 155.413 157.729 155.413ZM176.859 155.413C174.541 155.413 172.488 154.973 170.699 154.093C168.939 153.184 167.56 151.893 166.563 150.221C165.595 148.52 165.111 146.525 165.111 144.237C165.111 141.978 165.58 139.998 166.519 138.297C167.487 136.596 168.865 135.29 170.655 134.381C172.444 133.442 174.556 132.973 176.991 132.973C178.897 132.973 180.511 133.296 181.831 133.941C183.151 134.586 184.353 135.525 185.439 136.757L185.483 123.909C185.483 123.176 185.703 122.604 186.143 122.193C186.583 121.782 187.184 121.577 187.947 121.577C188.709 121.577 189.311 121.782 189.751 122.193C190.191 122.604 190.411 123.176 190.411 123.909V153.081C190.411 153.814 190.191 154.386 189.751 154.797C189.311 155.208 188.709 155.413 187.947 155.413C187.213 155.413 186.612 155.208 186.143 154.797C185.703 154.357 185.483 153.785 185.483 153.081V151.541C183.459 154.122 180.584 155.413 176.859 155.413ZM177.563 151.453C180.027 151.453 181.963 150.808 183.371 149.517C184.779 148.226 185.483 146.452 185.483 144.193C185.483 141.934 184.749 140.16 183.283 138.869C181.845 137.578 179.939 136.933 177.563 136.933C175.216 136.933 173.383 137.593 172.063 138.913C170.743 140.204 170.083 141.978 170.083 144.237C170.083 146.554 170.743 148.344 172.063 149.605C173.383 150.837 175.216 151.453 177.563 151.453ZM197.583 155.413C196.821 155.413 196.219 155.208 195.779 154.797C195.339 154.386 195.119 153.814 195.119 153.081V135.305C195.119 134.572 195.325 134 195.735 133.589C196.175 133.178 196.762 132.973 197.495 132.973C198.258 132.973 198.845 133.178 199.255 133.589C199.695 134 199.915 134.572 199.915 135.305V137.153C201.822 134.66 204.33 133.413 207.439 133.413H208.451C209.243 133.413 209.859 133.589 210.299 133.941C210.769 134.293 211.003 134.777 211.003 135.393C211.003 136.038 210.769 136.537 210.299 136.889C209.859 137.212 209.243 137.373 208.451 137.373H207.043C204.902 137.373 203.201 138.033 201.939 139.353C200.678 140.644 200.047 142.418 200.047 144.677V153.081C200.047 153.785 199.813 154.357 199.343 154.797C198.903 155.208 198.317 155.413 197.583 155.413ZM223.966 155.413C221.443 155.413 219.243 154.973 217.366 154.093C215.518 153.184 214.095 151.893 213.098 150.221C212.13 148.549 211.646 146.569 211.646 144.281C211.646 140.732 212.702 137.96 214.814 135.965C216.926 133.97 219.859 132.973 223.614 132.973C225.931 132.973 227.985 133.34 229.774 134.073C231.563 134.806 232.957 135.833 233.954 137.153C234.951 138.444 235.45 139.925 235.45 141.597C235.45 142.946 235.039 143.988 234.218 144.721C233.397 145.454 232.238 145.821 230.742 145.821H216.486C216.486 147.64 217.131 149.048 218.422 150.045C219.713 151.042 221.561 151.541 223.966 151.541C225.345 151.541 226.562 151.394 227.618 151.101C228.674 150.808 229.657 150.338 230.566 149.693C231.417 149.136 232.062 148.857 232.502 148.857C232.883 148.857 233.279 149.062 233.69 149.473C234.159 149.913 234.394 150.397 234.394 150.925C234.394 151.482 234.145 151.952 233.646 152.333C231.182 154.386 227.955 155.413 223.966 155.413ZM229.246 142.257C229.745 142.257 230.111 142.154 230.346 141.949C230.581 141.744 230.698 141.392 230.698 140.893C230.698 139.69 230.053 138.722 228.762 137.989C227.471 137.226 225.755 136.845 223.614 136.845C221.443 136.845 219.727 137.344 218.466 138.341C217.205 139.309 216.574 140.614 216.574 142.257H229.246ZM242.013 155.413C241.25 155.413 240.649 155.208 240.209 154.797C239.769 154.386 239.549 153.814 239.549 153.081V135.305C239.549 134.572 239.754 134 240.165 133.589C240.605 133.178 241.192 132.973 241.925 132.973C242.688 132.973 243.274 133.178 243.685 133.589C244.125 134 244.345 134.572 244.345 135.305V137.021C246.516 134.322 249.42 132.973 253.057 132.973C255.844 132.973 258.029 133.824 259.613 135.525C261.226 137.226 262.033 139.573 262.033 142.565V153.081C262.033 153.814 261.798 154.386 261.329 154.797C260.889 155.208 260.288 155.413 259.525 155.413C258.762 155.413 258.161 155.208 257.721 154.797C257.31 154.386 257.105 153.814 257.105 153.081V142.565C257.105 140.746 256.665 139.353 255.785 138.385C254.905 137.417 253.658 136.933 252.045 136.933C249.698 136.933 247.85 137.637 246.501 139.045C245.152 140.424 244.477 142.301 244.477 144.677V153.081C244.477 153.785 244.242 154.357 243.773 154.797C243.333 155.208 242.746 155.413 242.013 155.413Z" fill="white"/>
<path d="M85.0545 109.155C84.6345 109.155 84.2945 109.035 84.0345 108.795C83.7945 108.535 83.6745 108.185 83.6745 107.745V88.965C83.6745 88.525 83.7945 88.185 84.0345 87.945C84.2945 87.685 84.6345 87.555 85.0545 87.555C85.4945 87.555 85.8445 87.685 86.1045 87.945C86.3645 88.185 86.4945 88.525 86.4945 88.965V107.745C86.4945 108.185 86.3645 108.535 86.1045 108.795C85.8445 109.035 85.4945 109.155 85.0545 109.155ZM92.8186 109.155C92.3786 109.155 92.0386 109.035 91.7986 108.795C91.5786 108.535 91.4686 108.185 91.4686 107.745V95.265C91.4686 94.325 91.9186 93.855 92.8186 93.855C93.2386 93.855 93.5686 93.985 93.8086 94.245C94.0486 94.485 94.1686 94.825 94.1686 95.265V96.735C95.6486 94.815 97.6586 93.855 100.199 93.855C102.119 93.855 103.599 94.415 104.639 95.535C105.699 96.635 106.229 98.195 106.229 100.215V107.745C106.229 108.185 106.099 108.535 105.839 108.795C105.599 109.035 105.269 109.155 104.849 109.155C104.409 109.155 104.069 109.035 103.829 108.795C103.589 108.535 103.469 108.185 103.469 107.745V100.215C103.469 98.875 103.149 97.865 102.509 97.185C101.889 96.505 100.959 96.165 99.7186 96.165C98.0386 96.165 96.6986 96.665 95.6986 97.665C94.7186 98.645 94.2286 99.975 94.2286 101.655V107.745C94.2286 108.185 94.0986 108.535 93.8386 108.795C93.5986 109.035 93.2586 109.155 92.8186 109.155ZM120.578 105.585C120.838 105.805 120.968 106.055 120.968 106.335C120.968 106.575 120.858 106.865 120.638 107.205C120.218 107.805 119.628 108.285 118.868 108.645C118.108 108.985 117.298 109.155 116.438 109.155C115.018 109.155 113.898 108.755 113.078 107.955C112.278 107.135 111.878 106.015 111.878 104.595V96.405H110.378C109.918 96.405 109.558 96.305 109.298 96.105C109.058 95.905 108.938 95.625 108.938 95.265C108.938 94.925 109.058 94.655 109.298 94.455C109.558 94.255 109.918 94.155 110.378 94.155H111.878V89.235C111.878 88.795 111.998 88.455 112.238 88.215C112.498 87.955 112.848 87.825 113.288 87.825C113.728 87.825 114.058 87.945 114.278 88.185C114.518 88.425 114.638 88.775 114.638 89.235V94.155H118.328C118.788 94.155 119.138 94.255 119.378 94.455C119.638 94.635 119.768 94.905 119.768 95.265C119.768 95.625 119.638 95.905 119.378 96.105C119.138 96.305 118.788 96.405 118.328 96.405H114.638V104.835C114.638 105.475 114.808 105.975 115.148 106.335C115.488 106.675 115.968 106.845 116.588 106.845C117.028 106.845 117.418 106.775 117.758 106.635C118.098 106.475 118.438 106.215 118.778 105.855C119.158 105.475 119.508 105.285 119.828 105.285C120.108 105.285 120.358 105.385 120.578 105.585ZM131.432 109.155C128.832 109.155 126.802 108.485 125.342 107.145C123.902 105.785 123.182 103.905 123.182 101.505C123.182 99.125 123.892 97.255 125.312 95.895C126.752 94.535 128.742 93.855 131.282 93.855C132.842 93.855 134.222 94.105 135.422 94.605C136.642 95.085 137.592 95.775 138.272 96.675C138.952 97.555 139.292 98.565 139.292 99.705C139.292 100.585 139.032 101.265 138.512 101.745C138.012 102.225 137.292 102.465 136.352 102.465H125.942C125.942 103.865 126.412 104.955 127.352 105.735C128.312 106.495 129.672 106.875 131.432 106.875C132.472 106.875 133.372 106.765 134.132 106.545C134.912 106.325 135.642 105.965 136.322 105.465C136.822 105.125 137.202 104.955 137.462 104.955C137.702 104.955 137.922 105.055 138.122 105.255C138.402 105.535 138.542 105.825 138.542 106.125C138.542 106.425 138.402 106.705 138.122 106.965C136.482 108.425 134.252 109.155 131.432 109.155ZM135.512 100.365C135.872 100.365 136.132 100.295 136.292 100.155C136.452 100.015 136.532 99.765 136.532 99.405C136.532 98.445 136.042 97.665 135.062 97.065C134.102 96.445 132.842 96.135 131.282 96.135C129.662 96.135 128.372 96.515 127.412 97.275C126.472 98.035 126.002 99.065 126.002 100.365H135.512ZM143.737 109.155C143.297 109.155 142.957 109.035 142.717 108.795C142.497 108.535 142.387 108.185 142.387 107.745V95.265C142.387 94.325 142.837 93.855 143.737 93.855C144.157 93.855 144.487 93.985 144.727 94.245C144.967 94.485 145.087 94.825 145.087 95.265V96.795C146.407 95.035 148.197 94.155 150.457 94.155H151.177C151.657 94.155 152.027 94.255 152.287 94.455C152.547 94.655 152.677 94.945 152.677 95.325C152.677 95.685 152.537 95.965 152.257 96.165C151.997 96.365 151.637 96.465 151.177 96.465H150.277C148.697 96.465 147.447 96.935 146.527 97.875C145.607 98.795 145.147 100.055 145.147 101.655V107.745C145.147 108.185 145.017 108.535 144.757 108.795C144.517 109.035 144.177 109.155 143.737 109.155ZM159.716 109.155C157.776 109.155 156.236 108.715 155.096 107.835C153.976 106.955 153.416 105.765 153.416 104.265C153.416 102.765 154.006 101.575 155.186 100.695C156.386 99.815 158.016 99.375 160.076 99.375C161.156 99.375 162.116 99.515 162.956 99.795C163.816 100.075 164.506 100.455 165.026 100.935V99.435C165.026 98.355 164.676 97.535 163.976 96.975C163.296 96.395 162.286 96.105 160.946 96.105C159.166 96.105 157.626 96.515 156.326 97.335C155.946 97.555 155.616 97.665 155.336 97.665C155.076 97.665 154.816 97.555 154.556 97.335C154.336 97.115 154.226 96.855 154.226 96.555C154.226 96.215 154.396 95.905 154.736 95.625C155.456 95.085 156.366 94.655 157.466 94.335C158.566 94.015 159.716 93.855 160.916 93.855C163.096 93.855 164.796 94.355 166.016 95.355C167.236 96.335 167.846 97.715 167.846 99.495V107.805C167.846 108.245 167.726 108.585 167.486 108.825C167.266 109.045 166.936 109.155 166.496 109.155C166.056 109.155 165.716 109.045 165.476 108.825C165.236 108.585 165.116 108.265 165.116 107.865V107.025C163.916 108.445 162.116 109.155 159.716 109.155ZM160.196 107.025C161.656 107.025 162.826 106.765 163.706 106.245C164.606 105.705 165.056 105.005 165.056 104.145C165.056 103.305 164.626 102.655 163.766 102.195C162.926 101.715 161.756 101.475 160.256 101.475C158.956 101.475 157.956 101.715 157.256 102.195C156.556 102.675 156.206 103.365 156.206 104.265C156.206 105.145 156.546 105.825 157.226 106.305C157.926 106.785 158.916 107.025 160.196 107.025ZM179.009 109.155C177.349 109.155 175.899 108.845 174.659 108.225C173.419 107.605 172.469 106.715 171.809 105.555C171.149 104.395 170.819 103.035 170.819 101.475C170.819 99.935 171.149 98.595 171.809 97.455C172.469 96.295 173.419 95.405 174.659 94.785C175.899 94.165 177.349 93.855 179.009 93.855C180.489 93.855 181.789 94.075 182.909 94.515C184.029 94.955 184.899 95.585 185.519 96.405C185.719 96.625 185.819 96.885 185.819 97.185C185.819 97.545 185.629 97.865 185.249 98.145C185.089 98.285 184.869 98.355 184.589 98.355C184.149 98.355 183.749 98.175 183.389 97.815C182.409 96.715 180.949 96.165 179.009 96.165C177.289 96.165 175.959 96.625 175.019 97.545C174.079 98.465 173.609 99.775 173.609 101.475C173.609 103.175 174.079 104.495 175.019 105.435C175.979 106.375 177.309 106.845 179.009 106.845C179.949 106.845 180.819 106.705 181.619 106.425C182.419 106.125 183.099 105.695 183.659 105.135C184.079 104.715 184.479 104.505 184.859 104.505C185.099 104.505 185.339 104.595 185.579 104.775C185.899 105.075 186.059 105.405 186.059 105.765C186.059 106.065 185.949 106.325 185.729 106.545C184.769 107.445 183.749 108.105 182.669 108.525C181.589 108.945 180.369 109.155 179.009 109.155ZM199.181 105.585C199.441 105.805 199.571 106.055 199.571 106.335C199.571 106.575 199.461 106.865 199.241 107.205C198.821 107.805 198.231 108.285 197.471 108.645C196.711 108.985 195.901 109.155 195.041 109.155C193.621 109.155 192.501 108.755 191.681 107.955C190.881 107.135 190.481 106.015 190.481 104.595V96.405H188.981C188.521 96.405 188.161 96.305 187.901 96.105C187.661 95.905 187.541 95.625 187.541 95.265C187.541 94.925 187.661 94.655 187.901 94.455C188.161 94.255 188.521 94.155 188.981 94.155H190.481V89.235C190.481 88.795 190.601 88.455 190.841 88.215C191.101 87.955 191.451 87.825 191.891 87.825C192.331 87.825 192.661 87.945 192.881 88.185C193.121 88.425 193.241 88.775 193.241 89.235V94.155H196.931C197.391 94.155 197.741 94.255 197.981 94.455C198.241 94.635 198.371 94.905 198.371 95.265C198.371 95.625 198.241 95.905 197.981 96.105C197.741 96.305 197.391 96.405 196.931 96.405H193.241V104.835C193.241 105.475 193.411 105.975 193.751 106.335C194.091 106.675 194.571 106.845 195.191 106.845C195.631 106.845 196.021 106.775 196.361 106.635C196.701 106.475 197.041 106.215 197.381 105.855C197.761 105.475 198.111 105.285 198.431 105.285C198.711 105.285 198.961 105.385 199.181 105.585ZM204.305 91.125C203.785 91.125 203.345 90.965 202.985 90.645C202.625 90.305 202.445 89.885 202.445 89.385C202.445 88.885 202.625 88.465 202.985 88.125C203.345 87.785 203.785 87.615 204.305 87.615C204.865 87.615 205.325 87.785 205.685 88.125C206.065 88.465 206.255 88.885 206.255 89.385C206.255 89.865 206.065 90.275 205.685 90.615C205.325 90.955 204.865 91.125 204.305 91.125ZM204.335 109.155C203.895 109.155 203.555 109.035 203.315 108.795C203.075 108.535 202.955 108.185 202.955 107.745V95.265C202.955 94.825 203.075 94.485 203.315 94.245C203.555 93.985 203.895 93.855 204.335 93.855C204.775 93.855 205.115 93.985 205.355 94.245C205.595 94.485 205.715 94.825 205.715 95.265V107.745C205.715 108.185 205.595 108.535 205.355 108.795C205.115 109.035 204.775 109.155 204.335 109.155ZM217.863 109.155C216.123 109.155 214.613 108.815 213.333 108.135C212.053 107.455 211.073 106.535 210.393 105.375C209.733 104.215 209.403 102.925 209.403 101.505C209.403 100.085 209.733 98.795 210.393 97.635C211.073 96.475 212.053 95.555 213.333 94.875C214.613 94.195 216.123 93.855 217.863 93.855C219.603 93.855 221.103 94.195 222.363 94.875C223.643 95.555 224.613 96.475 225.273 97.635C225.953 98.795 226.293 100.085 226.293 101.505C226.293 102.925 225.953 104.215 225.273 105.375C224.613 106.535 223.643 107.455 222.363 108.135C221.103 108.815 219.603 109.155 217.863 109.155ZM217.863 106.845C219.583 106.845 220.953 106.375 221.973 105.435C222.993 104.495 223.503 103.185 223.503 101.505C223.503 99.825 222.993 98.515 221.973 97.575C220.953 96.635 219.583 96.165 217.863 96.165C216.143 96.165 214.763 96.635 213.723 97.575C212.703 98.515 212.193 99.825 212.193 101.505C212.193 103.185 212.703 104.495 213.723 105.435C214.763 106.375 216.143 106.845 217.863 106.845ZM230.367 109.155C229.927 109.155 229.587 109.035 229.347 108.795C229.127 108.535 229.017 108.185 229.017 107.745V95.265C229.017 94.325 229.467 93.855 230.367 93.855C230.787 93.855 231.117 93.985 231.357 94.245C231.597 94.485 231.717 94.825 231.717 95.265V96.735C233.197 94.815 235.207 93.855 237.747 93.855C239.667 93.855 241.147 94.415 242.187 95.535C243.247 96.635 243.777 98.195 243.777 100.215V107.745C243.777 108.185 243.647 108.535 243.387 108.795C243.147 109.035 242.817 109.155 242.397 109.155C241.957 109.155 241.617 109.035 241.377 108.795C241.137 108.535 241.017 108.185 241.017 107.745V100.215C241.017 98.875 240.697 97.865 240.057 97.185C239.437 96.505 238.507 96.165 237.267 96.165C235.587 96.165 234.247 96.665 233.247 97.665C232.267 98.645 231.777 99.975 231.777 101.655V107.745C231.777 108.185 231.647 108.535 231.387 108.795C231.147 109.035 230.807 109.155 230.367 109.155Z" fill="white"/>
<path d="M321.193 198.56L338.779 180.776C341.316 178.21 346.967 178.327 348.948 180.987L361.769 198.207C363.682 200.776 360.781 203.896 356.405 203.978L325.998 204.542C321.313 204.629 318.569 201.213 321.193 198.56Z" fill="#9BBCF1"/>
<defs>
<filter id="filter0_dddddd_180_45" x="11.9727" y="10.3193" width="366.92" height="230.066" filterUnits="userSpaceOnUse" color-interpolation-filters="sRGB">
<feFlood flood-opacity="0" result="BackgroundImageFix"/>
<feColorMatrix in="SourceAlpha" type="matrix" values="0 0 0 0 0 0 0 0 0 0 0 0 0 0 0 0 0 0 127 0" result="hardAlpha"/>
<feOffset dy="4"/>
<feGaussianBlur stdDeviation="2"/>
<feComposite in2="hardAlpha" operator="out"/>
<feColorMatrix type="matrix" values="0 0 0 0 0 0 0 0 0 0 0 0 0 0 0 0 0 0 0.25 0"/>
<feBlend mode="normal" in2="BackgroundImageFix" result="effect1_dropShadow_180_45"/>
<feColorMatrix in="SourceAlpha" type="matrix" values="0 0 0 0 0 0 0 0 0 0 0 0 0 0 0 0 0 0 127 0" result="hardAlpha"/>
<feOffset dy="4"/>
<feGaussianBlur stdDeviation="2"/>
<feComposite in2="hardAlpha" operator="out"/>
<feColorMatrix type="matrix" values="0 0 0 0 0 0 0 0 0 0 0 0 0 0 0 0 0 0 0.25 0"/>
<feBlend mode="normal" in2="effect1_dropShadow_180_45" result="effect2_dropShadow_180_45"/>
<feColorMatrix in="SourceAlpha" type="matrix" values="0 0 0 0 0 0 0 0 0 0 0 0 0 0 0 0 0 0 127 0" result="hardAlpha"/>
<feOffset dy="4"/>
<feGaussianBlur stdDeviation="2"/>
<feComposite in2="hardAlpha" operator="out"/>
<feColorMatrix type="matrix" values="0 0 0 0 0 0 0 0 0 0 0 0 0 0 0 0 0 0 0.25 0"/>
<feBlend mode="normal" in2="effect2_dropShadow_180_45" result="effect3_dropShadow_180_45"/>
<feColorMatrix in="SourceAlpha" type="matrix" values="0 0 0 0 0 0 0 0 0 0 0 0 0 0 0 0 0 0 127 0" result="hardAlpha"/>
<feOffset dy="4"/>
<feGaussianBlur stdDeviation="2"/>
<feComposite in2="hardAlpha" operator="out"/>
<feColorMatrix type="matrix" values="0 0 0 0 0 0 0 0 0 0 0 0 0 0 0 0 0 0 0.25 0"/>
<feBlend mode="normal" in2="effect3_dropShadow_180_45" result="effect4_dropShadow_180_45"/>
<feColorMatrix in="SourceAlpha" type="matrix" values="0 0 0 0 0 0 0 0 0 0 0 0 0 0 0 0 0 0 127 0" result="hardAlpha"/>
<feOffset dy="4"/>
<feGaussianBlur stdDeviation="2"/>
<feComposite in2="hardAlpha" operator="out"/>
<feColorMatrix type="matrix" values="0 0 0 0 0 0 0 0 0 0 0 0 0 0 0 0 0 0 0.25 0"/>
<feBlend mode="normal" in2="effect4_dropShadow_180_45" result="effect5_dropShadow_180_45"/>
<feColorMatrix in="SourceAlpha" type="matrix" values="0 0 0 0 0 0 0 0 0 0 0 0 0 0 0 0 0 0 127 0" result="hardAlpha"/>
<feOffset dy="4"/>
<feGaussianBlur stdDeviation="2"/>
<feComposite in2="hardAlpha" operator="out"/>
<feColorMatrix type="matrix" values="0 0 0 0 0 0 0 0 0 0 0 0 0 0 0 0 0 0 0.25 0"/>
<feBlend mode="normal" in2="effect5_dropShadow_180_45" result="effect6_dropShadow_180_45"/>
<feBlend mode="normal" in="SourceGraphic" in2="effect6_dropShadow_180_45" result="shape"/>
</filter>
</defs>
</svg>
