<svg width="102" height="88" viewBox="0 0 102 88" fill="none" xmlns="http://www.w3.org/2000/svg">
<g filter="url(#filter0_d_76_223)">
<path d="M61.8874 24.2021L65.9999 32.4271C66.554 33.5646 68.0415 34.6438 69.2957 34.8771L76.7332 36.1021C81.4874 36.8896 82.5957 40.3313 79.1832 43.7729L73.379 49.5771C72.4165 50.5396 71.8624 52.4354 72.1832 53.8063L73.8457 60.9813C75.1582 66.6396 72.1249 68.8563 67.1374 65.8813L60.1665 61.7396C58.9124 60.9813 56.8124 60.9813 55.5582 61.7396L48.5874 65.8813C43.5999 68.8271 40.5665 66.6396 41.879 60.9813L43.5415 53.8063C43.804 52.4063 43.2499 50.5104 42.2874 49.5479L36.4832 43.7438C33.0707 40.3313 34.179 36.8896 38.9332 36.0729L46.3707 34.8479C47.6249 34.6438 49.1124 33.5354 49.6665 32.3979L53.779 24.1729C56.0249 19.7396 59.6415 19.7396 61.8874 24.2021Z" fill="white"/>
</g>
<g filter="url(#filter1_d_76_223)">
<path d="M40.3335 25.7734H22.8335C21.6377 25.7734 20.646 24.7818 20.646 23.5859C20.646 22.3901 21.6377 21.3984 22.8335 21.3984H40.3335C41.5293 21.3984 42.521 22.3901 42.521 23.5859C42.521 24.7818 41.5293 25.7734 40.3335 25.7734Z" fill="white"/>
</g>
<g filter="url(#filter2_d_76_223)">
<path d="M31.5835 66.6016H22.8335C21.6377 66.6016 20.646 65.6099 20.646 64.4141C20.646 63.2182 21.6377 62.2266 22.8335 62.2266H31.5835C32.7793 62.2266 33.771 63.2182 33.771 64.4141C33.771 65.6099 32.7793 66.6016 31.5835 66.6016Z" fill="white"/>
</g>
<g filter="url(#filter3_d_76_223)">
<path d="M25.7502 46.1875H22.8335C21.6377 46.1875 20.646 45.1958 20.646 44C20.646 42.8042 21.6377 41.8125 22.8335 41.8125H25.7502C26.946 41.8125 27.9377 42.8042 27.9377 44C27.9377 45.1958 26.946 46.1875 25.7502 46.1875Z" fill="white"/>
</g>
<defs>
<filter id="filter0_d_76_223" x="14.5015" y="0.851562" width="86.6636" height="86.3516" filterUnits="userSpaceOnUse" color-interpolation-filters="sRGB">
<feFlood flood-opacity="0" result="BackgroundImageFix"/>
<feColorMatrix in="SourceAlpha" type="matrix" values="0 0 0 0 0 0 0 0 0 0 0 0 0 0 0 0 0 0 127 0" result="hardAlpha"/>
<feOffset/>
<feGaussianBlur stdDeviation="10"/>
<feComposite in2="hardAlpha" operator="out"/>
<feColorMatrix type="matrix" values="0 0 0 0 1 0 0 0 0 1 0 0 0 0 1 0 0 0 0.46 0"/>
<feBlend mode="normal" in2="BackgroundImageFix" result="effect1_dropShadow_76_223"/>
<feBlend mode="normal" in="SourceGraphic" in2="effect1_dropShadow_76_223" result="shape"/>
</filter>
<filter id="filter1_d_76_223" x="0.645996" y="1.39844" width="61.875" height="44.375" filterUnits="userSpaceOnUse" color-interpolation-filters="sRGB">
<feFlood flood-opacity="0" result="BackgroundImageFix"/>
<feColorMatrix in="SourceAlpha" type="matrix" values="0 0 0 0 0 0 0 0 0 0 0 0 0 0 0 0 0 0 127 0" result="hardAlpha"/>
<feOffset/>
<feGaussianBlur stdDeviation="10"/>
<feComposite in2="hardAlpha" operator="out"/>
<feColorMatrix type="matrix" values="0 0 0 0 1 0 0 0 0 1 0 0 0 0 1 0 0 0 0.46 0"/>
<feBlend mode="normal" in2="BackgroundImageFix" result="effect1_dropShadow_76_223"/>
<feBlend mode="normal" in="SourceGraphic" in2="effect1_dropShadow_76_223" result="shape"/>
</filter>
<filter id="filter2_d_76_223" x="0.645996" y="42.2266" width="53.125" height="44.375" filterUnits="userSpaceOnUse" color-interpolation-filters="sRGB">
<feFlood flood-opacity="0" result="BackgroundImageFix"/>
<feColorMatrix in="SourceAlpha" type="matrix" values="0 0 0 0 0 0 0 0 0 0 0 0 0 0 0 0 0 0 127 0" result="hardAlpha"/>
<feOffset/>
<feGaussianBlur stdDeviation="10"/>
<feComposite in2="hardAlpha" operator="out"/>
<feColorMatrix type="matrix" values="0 0 0 0 1 0 0 0 0 1 0 0 0 0 1 0 0 0 0.46 0"/>
<feBlend mode="normal" in2="BackgroundImageFix" result="effect1_dropShadow_76_223"/>
<feBlend mode="normal" in="SourceGraphic" in2="effect1_dropShadow_76_223" result="shape"/>
</filter>
<filter id="filter3_d_76_223" x="0.645996" y="21.8125" width="47.2915" height="44.375" filterUnits="userSpaceOnUse" color-interpolation-filters="sRGB">
<feFlood flood-opacity="0" result="BackgroundImageFix"/>
<feColorMatrix in="SourceAlpha" type="matrix" values="0 0 0 0 0 0 0 0 0 0 0 0 0 0 0 0 0 0 127 0" result="hardAlpha"/>
<feOffset/>
<feGaussianBlur stdDeviation="10"/>
<feComposite in2="hardAlpha" operator="out"/>
<feColorMatrix type="matrix" values="0 0 0 0 1 0 0 0 0 1 0 0 0 0 1 0 0 0 0.46 0"/>
<feBlend mode="normal" in2="BackgroundImageFix" result="effect1_dropShadow_76_223"/>
<feBlend mode="normal" in="SourceGraphic" in2="effect1_dropShadow_76_223" result="shape"/>
</filter>
</defs>
</svg>
