<svg width="332" height="61" viewBox="0 0 332 61" fill="none" xmlns="http://www.w3.org/2000/svg">
<rect x="1" y="1" width="33" height="59" rx="9" fill="#A7CDC4"/>
<rect x="1" y="1" width="33" height="59" rx="9" stroke="url(#paint0_linear_247_6473)" stroke-width="2"/>
<path d="M7.6925 45.9C6.8925 45.9 6.2525 45.6867 5.7725 45.26C5.2925 44.8333 5.0525 44.2467 5.0525 43.5V23.42C5.0525 21.5533 5.58583 20.1 6.6525 19.06C7.74583 18.02 9.2525 17.5 11.1725 17.5H17.9325C21.9858 17.5 25.0658 18.34 27.1725 20.02C29.2792 21.7 30.3325 24.1667 30.3325 27.42C30.3325 30.6733 29.3058 33.14 27.2525 34.82C25.1992 36.5 22.1725 37.34 18.1725 37.34H10.3725V43.5C10.3725 44.22 10.1192 44.8067 9.6125 45.26C9.1325 45.6867 8.4925 45.9 7.6925 45.9ZM18.1325 33.22C22.6925 33.22 24.9725 31.2867 24.9725 27.42C24.9725 23.5533 22.6925 21.62 18.1325 21.62H12.0925C11.5592 21.62 11.1325 21.7933 10.8125 22.14C10.5192 22.4867 10.3725 22.9667 10.3725 23.58V33.22H18.1325Z" fill="#4C3A55"/>
<rect x="40" y="1" width="30" height="59" rx="9" fill="#A7CDC4"/>
<rect x="40" y="1" width="30" height="59" rx="9" stroke="url(#paint1_linear_247_6473)" stroke-width="2"/>
<path d="M53.1213 45.9C51.4679 45.9 50.0013 45.62 48.7213 45.06C47.4679 44.5 46.4813 43.7267 45.7613 42.74C45.0679 41.7267 44.7213 40.5667 44.7213 39.26C44.7213 37.2867 45.5346 35.7133 47.1613 34.54C48.8146 33.3667 51.0413 32.78 53.8412 32.78C56.2679 32.78 58.2146 33.3 59.6813 34.34V33.38C59.6813 32.1267 59.2946 31.1667 58.5213 30.5C57.7479 29.8333 56.6279 29.5 55.1613 29.5C52.9746 29.5 51.0946 29.9667 49.5213 30.9C48.8546 31.2733 48.2813 31.46 47.8013 31.46C47.2146 31.46 46.6946 31.1933 46.2413 30.66C45.9479 30.2867 45.8013 29.9 45.8013 29.5C45.8013 28.8333 46.1479 28.2467 46.8413 27.74C47.8013 27.0467 49.0146 26.5 50.4813 26.1C51.9479 25.7 53.4946 25.5 55.1213 25.5C58.2146 25.5 60.6413 26.2067 62.4013 27.62C64.1879 29.0067 65.0813 30.9267 65.0813 33.38V43.66C65.0813 44.3533 64.8413 44.9 64.3613 45.3C63.9079 45.7 63.2813 45.9 62.4813 45.9C61.6546 45.9 61.0146 45.7133 60.5613 45.34C60.1079 44.9667 59.8813 44.4333 59.8813 43.74V43.3C58.3613 45.0333 56.1079 45.9 53.1213 45.9ZM54.3613 42.22C56.0413 42.22 57.3479 41.9667 58.2813 41.46C59.2413 40.9267 59.7213 40.1933 59.7213 39.26C59.7213 38.38 59.2413 37.6733 58.2813 37.14C57.3213 36.6067 56.0413 36.34 54.4413 36.34C53.0013 36.34 51.8813 36.5933 51.0813 37.1C50.3079 37.6067 49.9213 38.3267 49.9213 39.26C49.9213 40.1933 50.3079 40.9267 51.0813 41.46C51.8546 41.9667 52.9479 42.22 54.3613 42.22Z" fill="#4C3A55"/>
<rect x="76" y="1" width="31" height="59" rx="9" fill="#A7CDC4"/>
<rect x="76" y="1" width="31" height="59" rx="9" stroke="url(#paint2_linear_247_6473)" stroke-width="2"/>
<path d="M90.2997 45.9C88.2197 45.9 86.3664 45.5 84.7397 44.7C83.1397 43.8733 81.8864 42.6867 80.9797 41.14C80.073 39.5933 79.6197 37.78 79.6197 35.7C79.6197 33.62 80.0464 31.82 80.8997 30.3C81.7797 28.7533 83.033 27.5667 84.6597 26.74C86.2864 25.9133 88.2064 25.5 90.4197 25.5C92.0464 25.5 93.4197 25.7667 94.5397 26.3C95.6597 26.8067 96.713 27.58 97.6997 28.62L97.7397 17.54C97.7397 16.7933 97.9797 16.2067 98.4597 15.78C98.9397 15.3533 99.5797 15.14 100.38 15.14C101.18 15.14 101.806 15.3533 102.26 15.78C102.74 16.18 102.98 16.7667 102.98 17.54V43.5C102.98 44.2733 102.74 44.8733 102.26 45.3C101.806 45.7 101.18 45.9 100.38 45.9C99.5797 45.9 98.9397 45.6867 98.4597 45.26C97.9797 44.8333 97.7397 44.2467 97.7397 43.5V42.7C95.953 44.8333 93.473 45.9 90.2997 45.9ZM91.0997 41.74C93.1797 41.74 94.8064 41.2067 95.9797 40.14C97.153 39.0733 97.7397 37.5933 97.7397 35.7C97.7397 33.8067 97.153 32.3267 95.9797 31.26C94.8064 30.1933 93.1797 29.66 91.0997 29.66C89.153 29.66 87.633 30.1933 86.5397 31.26C85.4464 32.3267 84.8997 33.8067 84.8997 35.7C84.8997 37.5933 85.4464 39.0733 86.5397 40.14C87.633 41.2067 89.153 41.74 91.0997 41.74Z" fill="#4C3A55"/>
<rect x="113" y="1" width="29" height="59" rx="9" fill="#A7CDC4"/>
<rect x="113" y="1" width="29" height="59" rx="9" stroke="url(#paint3_linear_247_6473)" stroke-width="2"/>
<path d="M125.621 45.9C123.968 45.9 122.501 45.62 121.221 45.06C119.968 44.5 118.981 43.7267 118.261 42.74C117.568 41.7267 117.221 40.5667 117.221 39.26C117.221 37.2867 118.035 35.7133 119.661 34.54C121.315 33.3667 123.541 32.78 126.341 32.78C128.768 32.78 130.715 33.3 132.181 34.34V33.38C132.181 32.1267 131.795 31.1667 131.021 30.5C130.248 29.8333 129.128 29.5 127.661 29.5C125.475 29.5 123.595 29.9667 122.021 30.9C121.355 31.2733 120.781 31.46 120.301 31.46C119.715 31.46 119.195 31.1933 118.741 30.66C118.448 30.2867 118.301 29.9 118.301 29.5C118.301 28.8333 118.648 28.2467 119.341 27.74C120.301 27.0467 121.515 26.5 122.981 26.1C124.448 25.7 125.995 25.5 127.621 25.5C130.715 25.5 133.141 26.2067 134.901 27.62C136.688 29.0067 137.581 30.9267 137.581 33.38V43.66C137.581 44.3533 137.341 44.9 136.861 45.3C136.408 45.7 135.781 45.9 134.981 45.9C134.155 45.9 133.515 45.7133 133.061 45.34C132.608 44.9667 132.381 44.4333 132.381 43.74V43.3C130.861 45.0333 128.608 45.9 125.621 45.9ZM126.861 42.22C128.541 42.22 129.848 41.9667 130.781 41.46C131.741 40.9267 132.221 40.1933 132.221 39.26C132.221 38.38 131.741 37.6733 130.781 37.14C129.821 36.6067 128.541 36.34 126.941 36.34C125.501 36.34 124.381 36.5933 123.581 37.1C122.808 37.6067 122.421 38.3267 122.421 39.26C122.421 40.1933 122.808 40.9267 123.581 41.46C124.355 41.9667 125.448 42.22 126.861 42.22Z" fill="#4C3A55"/>
<rect x="148" y="1" width="25" height="59" rx="9" fill="#A7CDC4"/>
<rect x="148" y="1" width="25" height="59" rx="9" stroke="url(#paint4_linear_247_6473)" stroke-width="2"/>
<path d="M156.131 45.9C155.305 45.9 154.665 45.6867 154.211 45.26C153.758 44.8333 153.531 44.2467 153.531 43.5V27.9C153.531 27.1267 153.745 26.54 154.171 26.14C154.625 25.7133 155.251 25.5 156.051 25.5C156.851 25.5 157.478 25.7133 157.931 26.14C158.385 26.5667 158.611 27.1533 158.611 27.9V29.22C159.438 28.1533 160.398 27.34 161.491 26.78C162.611 26.1933 163.811 25.9 165.091 25.9H165.971C166.825 25.9 167.478 26.0867 167.931 26.46C168.411 26.8067 168.651 27.3133 168.651 27.98C168.651 28.6467 168.411 29.1667 167.931 29.54C167.478 29.8867 166.825 30.06 165.971 30.06H164.611C162.825 30.06 161.398 30.6333 160.331 31.78C159.291 32.9 158.771 34.4467 158.771 36.42V43.5C158.771 44.2467 158.531 44.8333 158.051 45.26C157.571 45.6867 156.931 45.9 156.131 45.9Z" fill="#4C3A55"/>
<rect x="179" y="1" width="24" height="59" rx="9" fill="#A7CDC4"/>
<rect x="179" y="1" width="24" height="59" rx="9" stroke="url(#paint5_linear_247_6473)" stroke-width="2"/>
<path d="M186.631 45.9C185.805 45.9 185.165 45.6867 184.711 45.26C184.258 44.8333 184.031 44.2467 184.031 43.5V27.9C184.031 27.1267 184.245 26.54 184.671 26.14C185.125 25.7133 185.751 25.5 186.551 25.5C187.351 25.5 187.978 25.7133 188.431 26.14C188.885 26.5667 189.111 27.1533 189.111 27.9V29.22C189.938 28.1533 190.898 27.34 191.991 26.78C193.111 26.1933 194.311 25.9 195.591 25.9H196.471C197.325 25.9 197.978 26.0867 198.431 26.46C198.911 26.8067 199.151 27.3133 199.151 27.98C199.151 28.6467 198.911 29.1667 198.431 29.54C197.978 29.8867 197.325 30.06 196.471 30.06H195.111C193.325 30.06 191.898 30.6333 190.831 31.78C189.791 32.9 189.271 34.4467 189.271 36.42V43.5C189.271 44.2467 189.031 44.8333 188.551 45.26C188.071 45.6867 187.431 45.9 186.631 45.9Z" fill="#4C3A55"/>
<rect x="209" y="1" width="29" height="59" rx="9" fill="#A7CDC4"/>
<rect x="209" y="1" width="29" height="59" rx="9" stroke="url(#paint6_linear_247_6473)" stroke-width="2"/>
<path d="M221.621 45.9C219.968 45.9 218.501 45.62 217.221 45.06C215.968 44.5 214.981 43.7267 214.261 42.74C213.568 41.7267 213.221 40.5667 213.221 39.26C213.221 37.2867 214.035 35.7133 215.661 34.54C217.315 33.3667 219.541 32.78 222.341 32.78C224.768 32.78 226.715 33.3 228.181 34.34V33.38C228.181 32.1267 227.795 31.1667 227.021 30.5C226.248 29.8333 225.128 29.5 223.661 29.5C221.475 29.5 219.595 29.9667 218.021 30.9C217.355 31.2733 216.781 31.46 216.301 31.46C215.715 31.46 215.195 31.1933 214.741 30.66C214.448 30.2867 214.301 29.9 214.301 29.5C214.301 28.8333 214.648 28.2467 215.341 27.74C216.301 27.0467 217.515 26.5 218.981 26.1C220.448 25.7 221.995 25.5 223.621 25.5C226.715 25.5 229.141 26.2067 230.901 27.62C232.688 29.0067 233.581 30.9267 233.581 33.38V43.66C233.581 44.3533 233.341 44.9 232.861 45.3C232.408 45.7 231.781 45.9 230.981 45.9C230.155 45.9 229.515 45.7133 229.061 45.34C228.608 44.9667 228.381 44.4333 228.381 43.74V43.3C226.861 45.0333 224.608 45.9 221.621 45.9ZM222.861 42.22C224.541 42.22 225.848 41.9667 226.781 41.46C227.741 40.9267 228.221 40.1933 228.221 39.26C228.221 38.38 227.741 37.6733 226.781 37.14C225.821 36.6067 224.541 36.34 222.941 36.34C221.501 36.34 220.381 36.5933 219.581 37.1C218.808 37.6067 218.421 38.3267 218.421 39.26C218.421 40.1933 218.808 40.9267 219.581 41.46C220.355 41.9667 221.448 42.22 222.861 42.22Z" fill="#4C3A55"/>
<rect x="244" y="1" width="25" height="59" rx="9" fill="#A7CDC4"/>
<rect x="244" y="1" width="25" height="59" rx="9" stroke="url(#paint7_linear_247_6473)" stroke-width="2"/>
<path d="M264.738 40.34C265.165 40.6867 265.378 41.1133 265.378 41.62C265.378 42.1267 265.191 42.6467 264.818 43.18C264.231 44.0333 263.405 44.7 262.338 45.18C261.271 45.66 260.071 45.9 258.738 45.9C256.605 45.9 254.925 45.3267 253.698 44.18C252.498 43.0067 251.898 41.4067 251.898 39.38V30.02H250.258C249.458 30.02 248.818 29.8333 248.338 29.46C247.858 29.0867 247.618 28.5933 247.618 27.98C247.618 27.34 247.845 26.8333 248.298 26.46C248.778 26.0867 249.431 25.9 250.258 25.9H251.898V19.86C251.898 19.1133 252.138 18.5267 252.618 18.1C253.098 17.6733 253.738 17.46 254.538 17.46C255.365 17.46 256.005 17.6733 256.458 18.1C256.911 18.5267 257.138 19.1133 257.138 19.86V25.9H260.978C261.805 25.9 262.445 26.0867 262.898 26.46C263.378 26.8333 263.618 27.34 263.618 27.98C263.618 28.5933 263.378 29.0867 262.898 29.46C262.445 29.8333 261.805 30.02 260.978 30.02H257.138V39.82C257.138 40.4067 257.311 40.8733 257.658 41.22C258.031 41.5667 258.525 41.74 259.138 41.74C259.618 41.74 260.031 41.6733 260.378 41.54C260.751 41.38 261.125 41.1267 261.498 40.78C262.191 40.1133 262.831 39.78 263.418 39.78C263.845 39.78 264.285 39.9667 264.738 40.34Z" fill="#4C3A55"/>
<rect x="275" y="1" width="20" height="59" rx="9" fill="#A7CDC4"/>
<rect x="275" y="1" width="20" height="59" rx="9" stroke="url(#paint8_linear_247_6473)" stroke-width="2"/>
<path d="M284.964 23.02C283.977 23.02 283.177 22.7533 282.564 22.22C281.977 21.66 281.684 20.94 281.684 20.06C281.684 19.18 281.977 18.4733 282.564 17.94C283.177 17.38 283.977 17.1 284.964 17.1C285.95 17.1 286.75 17.38 287.364 17.94C288.004 18.4733 288.324 19.18 288.324 20.06C288.324 20.94 288.004 21.66 287.364 22.22C286.75 22.7533 285.95 23.02 284.964 23.02ZM285.004 45.9C284.177 45.9 283.537 45.6867 283.084 45.26C282.63 44.8333 282.404 44.2467 282.404 43.5V27.9C282.404 27.1533 282.63 26.5667 283.084 26.14C283.537 25.7133 284.177 25.5 285.004 25.5C285.804 25.5 286.444 25.7133 286.924 26.14C287.404 26.5667 287.644 27.1533 287.644 27.9V43.5C287.644 44.2467 287.404 44.8333 286.924 45.26C286.444 45.6867 285.804 45.9 285.004 45.9Z" fill="#4C3A55"/>
<rect x="301" y="1" width="30" height="59" rx="9" fill="#A7CDC4"/>
<rect x="301" y="1" width="30" height="59" rx="9" stroke="url(#paint9_linear_247_6473)" stroke-width="2"/>
<path d="M315.998 45.9C312.824 45.9 310.624 44.1267 309.398 40.58L305.158 28.42C305.078 28.18 305.038 27.9533 305.038 27.74C305.038 27.1267 305.304 26.6067 305.838 26.18C306.398 25.7533 307.118 25.54 307.998 25.54C308.531 25.54 308.984 25.66 309.358 25.9C309.731 26.14 309.998 26.4733 310.158 26.9L314.638 39.9C314.851 40.5667 315.064 41.0467 315.278 41.34C315.491 41.6067 315.731 41.74 315.998 41.74C316.264 41.74 316.504 41.6067 316.718 41.34C316.931 41.0467 317.144 40.5667 317.358 39.9L321.838 26.9C321.998 26.4733 322.264 26.14 322.638 25.9C323.011 25.66 323.464 25.54 323.998 25.54C324.904 25.54 325.624 25.7533 326.158 26.18C326.691 26.58 326.958 27.1 326.958 27.74C326.958 27.9533 326.918 28.18 326.838 28.42L322.598 40.58C321.371 44.1267 319.171 45.9 315.998 45.9Z" fill="#4C3A55"/>
<defs>
<linearGradient id="paint0_linear_247_6473" x1="17.5" y1="0" x2="17.5" y2="61" gradientUnits="userSpaceOnUse">
<stop stop-color="#D8C39A"/>
<stop offset="1" stop-color="#726751"/>
</linearGradient>
<linearGradient id="paint1_linear_247_6473" x1="55" y1="0" x2="55" y2="61" gradientUnits="userSpaceOnUse">
<stop stop-color="#D8C39A"/>
<stop offset="1" stop-color="#726751"/>
</linearGradient>
<linearGradient id="paint2_linear_247_6473" x1="91.5" y1="0" x2="91.5" y2="61" gradientUnits="userSpaceOnUse">
<stop stop-color="#D8C39A"/>
<stop offset="1" stop-color="#726751"/>
</linearGradient>
<linearGradient id="paint3_linear_247_6473" x1="127.5" y1="0" x2="127.5" y2="61" gradientUnits="userSpaceOnUse">
<stop stop-color="#D8C39A"/>
<stop offset="1" stop-color="#726751"/>
</linearGradient>
<linearGradient id="paint4_linear_247_6473" x1="160.5" y1="0" x2="160.5" y2="61" gradientUnits="userSpaceOnUse">
<stop stop-color="#D8C39A"/>
<stop offset="1" stop-color="#726751"/>
</linearGradient>
<linearGradient id="paint5_linear_247_6473" x1="191" y1="0" x2="191" y2="61" gradientUnits="userSpaceOnUse">
<stop stop-color="#D8C39A"/>
<stop offset="1" stop-color="#726751"/>
</linearGradient>
<linearGradient id="paint6_linear_247_6473" x1="223.5" y1="0" x2="223.5" y2="61" gradientUnits="userSpaceOnUse">
<stop stop-color="#D8C39A"/>
<stop offset="1" stop-color="#726751"/>
</linearGradient>
<linearGradient id="paint7_linear_247_6473" x1="256.5" y1="0" x2="256.5" y2="61" gradientUnits="userSpaceOnUse">
<stop stop-color="#D8C39A"/>
<stop offset="1" stop-color="#726751"/>
</linearGradient>
<linearGradient id="paint8_linear_247_6473" x1="285" y1="0" x2="285" y2="61" gradientUnits="userSpaceOnUse">
<stop stop-color="#D8C39A"/>
<stop offset="1" stop-color="#726751"/>
</linearGradient>
<linearGradient id="paint9_linear_247_6473" x1="316" y1="0" x2="316" y2="61" gradientUnits="userSpaceOnUse">
<stop stop-color="#D8C39A"/>
<stop offset="1" stop-color="#726751"/>
</linearGradient>
</defs>
</svg>
