<svg width="139" height="125" viewBox="0 0 139 125" fill="none" xmlns="http://www.w3.org/2000/svg">
<path d="M67.6453 2.42485C67.9062 0.472967 71.0938 0.472967 71.3547 2.42485L73.5414 18.7994C76.365 39.9433 95.1268 56.6137 118.923 59.1225L137.352 61.0654C139.549 61.2972 139.549 64.1295 137.352 64.3613L118.923 66.3042C95.1268 68.813 76.365 85.4834 73.5414 106.627L71.3547 123.002C71.0938 124.954 67.9062 124.954 67.6453 123.002L65.4586 106.627C62.6351 85.4834 43.8732 68.813 20.0765 66.3042L1.64758 64.3613C-0.549193 64.1295 -0.549193 61.2972 1.64758 61.0654L20.0765 59.1225C43.8732 56.6137 62.6351 39.9433 65.4586 18.7994L67.6453 2.42485Z" fill="#333333"/>
</svg>
